<svg width="161" height="43" viewBox="0 0 161 43" fill="none" xmlns="http://www.w3.org/2000/svg">
<path d="M147.241 32.8548C147.115 32.8548 147.018 32.8034 146.951 32.7009C146.882 32.5925 146.866 32.4785 146.903 32.3588C146.94 32.239 147.034 32.1593 147.186 32.1193C147.878 31.9369 148.359 31.726 148.632 31.4865C148.905 31.2414 149.083 30.8566 149.167 30.3321C149.256 29.802 149.311 28.887 149.331 27.5872C149.342 26.7093 149.347 25.8655 149.347 25.056C149.352 24.2465 149.35 23.4512 149.339 22.6702C149.339 22.3452 149.337 22.1029 149.331 21.9433C149.321 21.0996 149.253 20.4611 149.127 20.0278C149.007 19.5946 148.802 19.2497 148.514 18.9931C148.226 18.7366 147.77 18.4544 147.147 18.1466C147.026 18.0838 146.945 18.0069 146.903 17.9157C146.861 17.8188 146.861 17.7276 146.903 17.642C146.945 17.5508 147.018 17.4795 147.123 17.4283C147.715 17.1261 148.284 16.8297 148.828 16.5389C149.164 16.3565 149.504 16.1769 149.85 16.0002C150.196 15.8235 150.56 15.6382 150.943 15.4444C151.111 15.4159 151.247 15.4244 151.351 15.47C151.456 15.5099 151.532 15.5926 151.579 15.718C151.626 15.8377 151.65 16.0087 151.65 16.2311C151.65 16.6301 151.736 16.9522 151.909 17.1973C152.087 17.4425 152.326 17.5708 152.625 17.5822C152.923 17.5879 153.248 17.4539 153.599 17.1803C154.081 16.804 154.508 16.4962 154.88 16.2567C155.257 16.0173 155.637 15.8263 156.02 15.6838C156.402 15.5356 156.789 15.4615 157.183 15.4615C158.22 15.4615 158.841 15.8662 159.045 16.6757C159.255 17.4795 159.048 18.1323 158.424 18.634C157.806 19.13 157.044 19.0245 156.137 18.3176C155.404 17.7532 154.694 17.5565 154.007 17.7276C153.321 17.8929 152.761 18.3945 152.326 19.2326C151.896 20.0706 151.671 21.151 151.65 22.4735C151.618 24.1723 151.618 25.8769 151.65 27.5872C151.671 28.8984 151.742 29.8105 151.862 30.3236C151.988 30.8367 152.242 31.2072 152.625 31.4353C153.012 31.6576 153.722 31.8857 154.754 32.1193C154.906 32.1536 155.003 32.2306 155.045 32.3503C155.087 32.47 155.072 32.5839 154.997 32.6923C154.924 32.8007 154.814 32.8548 154.668 32.8548C153.284 32.8376 151.959 32.8291 150.691 32.8291C149.429 32.8291 148.278 32.8376 147.241 32.8548Z" fill="black"/>
<path d="M139.353 33.4619C137.865 33.4619 136.547 33.097 135.4 32.3672C134.252 31.6319 133.357 30.5915 132.712 29.2461C132.073 27.9007 131.754 26.3415 131.754 24.5685C131.754 22.7728 132.115 21.1879 132.838 19.814C133.561 18.4344 134.522 17.3712 135.723 16.6244C136.927 15.8719 138.224 15.4956 139.613 15.4956C140.791 15.4956 141.857 15.7692 142.811 16.3165C143.77 16.8581 144.516 17.6362 145.05 18.651C145.59 19.6658 145.837 20.8516 145.79 22.2084C145.79 22.3566 145.768 22.4734 145.727 22.559C145.685 22.6388 145.619 22.6986 145.53 22.7385C145.446 22.7728 145.334 22.7898 145.192 22.7898H135.683C135.405 22.7898 135.169 22.8582 134.976 22.9951C134.782 23.1262 134.64 23.3228 134.551 23.5851C134.462 23.8417 134.431 24.1524 134.457 24.5172C134.567 26.1306 134.895 27.4788 135.439 28.562C135.984 29.6451 136.681 30.4489 137.53 30.9734C138.379 31.4922 139.319 31.7516 140.351 31.7516C140.906 31.7516 141.456 31.6717 142.002 31.5122C142.546 31.3468 143.081 31.0903 143.605 30.7425C144.129 30.3948 144.624 29.9501 145.09 29.4086C145.179 29.3117 145.271 29.266 145.365 29.2717C145.464 29.2774 145.533 29.3259 145.569 29.4171C145.612 29.5026 145.601 29.6109 145.538 29.742C145.077 30.6712 144.506 31.4124 143.824 31.9654C143.144 32.5184 142.423 32.906 141.663 33.1283C140.909 33.3507 140.139 33.4619 139.353 33.4619ZM141.86 22.1742C142.138 22.1742 142.371 22.1086 142.56 21.9775C142.748 21.8463 142.884 21.6582 142.968 21.4131C143.052 21.168 143.081 20.8829 143.055 20.5579C142.986 19.5603 142.761 18.7336 142.379 18.0781C141.996 17.4168 141.522 16.9322 140.956 16.6244C140.396 16.3165 139.806 16.1626 139.188 16.1626C138.548 16.1626 137.923 16.3222 137.31 16.6415C136.697 16.9607 136.155 17.4567 135.683 18.1294C135.216 18.8021 134.884 19.6344 134.685 20.6264C134.622 20.9399 134.622 21.2136 134.685 21.4473C134.747 21.6811 134.865 21.8606 135.039 21.986C135.216 22.1115 135.437 22.1742 135.699 22.1742H141.86Z" fill="black"/>
<path d="M127.033 33.4619C126.227 33.4619 125.556 33.2937 125.022 32.9574C124.488 32.6211 124.095 32.1707 123.843 31.6063C123.591 31.0362 123.466 30.4062 123.466 29.7164C123.466 28.3653 123.471 26.447 123.482 23.9615C123.492 21.7039 123.497 20.1105 123.497 19.1813C123.497 18.6454 123.439 18.2407 123.324 17.967C123.209 17.6934 123.013 17.5024 122.735 17.3941C122.463 17.2858 122.059 17.2316 121.524 17.2316C121.378 17.2316 121.27 17.1917 121.203 17.1119C121.134 17.0321 121.108 16.938 121.124 16.8297C121.14 16.7214 121.187 16.6273 121.265 16.5475C121.925 15.9261 122.58 15.2705 123.23 14.5807C123.88 13.8909 124.532 13.1612 125.187 12.3916C125.276 12.2776 125.373 12.2177 125.477 12.212C125.582 12.2006 125.669 12.2348 125.737 12.3146C125.81 12.3887 125.847 12.4885 125.847 12.6139V15.0425C125.847 15.2363 125.886 15.4045 125.965 15.547C126.043 15.6895 126.164 15.8007 126.327 15.8805C126.494 15.9546 126.698 15.9917 126.939 15.9917C128.291 15.9917 129.31 15.9774 129.996 15.9489C130.321 15.9375 130.546 16.0515 130.672 16.291C130.803 16.5304 130.803 16.7698 130.672 17.0093C130.546 17.2487 130.321 17.3628 129.996 17.3513C129.714 17.3456 129.43 17.3399 129.148 17.3343C128.865 17.3285 128.582 17.3228 128.299 17.3171C127.849 17.3171 127.395 17.3171 126.939 17.3171C126.698 17.3171 126.491 17.3656 126.319 17.4625C126.151 17.5537 126.025 17.6848 125.941 17.8559C125.858 18.0212 125.816 18.215 125.816 18.4373C125.816 19.9652 125.808 21.7837 125.792 23.8931C125.781 26.2646 125.777 28.0319 125.777 29.1949C125.777 30.1127 126.02 30.7939 126.507 31.2386C127 31.6776 127.623 31.8372 128.378 31.7175C129.132 31.5921 129.882 31.193 130.625 30.5203C130.73 30.4291 130.827 30.392 130.916 30.4091C131.01 30.4205 131.071 30.4775 131.097 30.5802C131.123 30.6771 131.104 30.7854 131.041 30.9051C130.853 31.2757 130.586 31.6548 130.24 32.0424C129.894 32.4301 129.446 32.7636 128.896 33.0429C128.352 33.3223 127.731 33.4619 127.033 33.4619Z" fill="black"/>
<path d="M116.822 33.4619C116.016 33.4619 115.345 33.2937 114.81 32.9574C114.276 32.6211 113.883 32.1707 113.632 31.6063C113.38 31.0362 113.254 30.4062 113.254 29.7164C113.254 28.3653 113.26 26.447 113.27 23.9615C113.28 21.7039 113.285 20.1105 113.285 19.1813C113.285 18.6454 113.228 18.2407 113.113 17.967C112.997 17.6934 112.801 17.5024 112.523 17.3941C112.25 17.2858 111.848 17.2316 111.313 17.2316C111.166 17.2316 111.059 17.1917 110.991 17.1119C110.923 17.0321 110.896 16.938 110.912 16.8297C110.928 16.7214 110.975 16.6273 111.054 16.5475C111.714 15.9261 112.369 15.2705 113.019 14.5807C113.668 13.8909 114.32 13.1612 114.975 12.3916C115.064 12.2776 115.161 12.2177 115.266 12.212C115.371 12.2006 115.458 12.2348 115.525 12.3146C115.599 12.3887 115.635 12.4885 115.635 12.6139V15.0425C115.635 15.2363 115.675 15.4045 115.753 15.547C115.832 15.6895 115.953 15.8007 116.115 15.8805C116.282 15.9546 116.487 15.9917 116.728 15.9917C118.08 15.9917 119.099 15.9774 119.785 15.9489C120.11 15.9375 120.335 16.0515 120.461 16.291C120.592 16.5304 120.592 16.7698 120.461 17.0093C120.335 17.2487 120.11 17.3628 119.785 17.3513C119.502 17.3456 119.219 17.3399 118.936 17.3343C118.654 17.3285 118.37 17.3228 118.088 17.3171C117.637 17.3171 117.183 17.3171 116.728 17.3171C116.487 17.3171 116.28 17.3656 116.107 17.4625C115.939 17.5537 115.813 17.6848 115.73 17.8559C115.646 18.0212 115.604 18.215 115.604 18.4373C115.604 19.9652 115.596 21.7837 115.58 23.8931C115.57 26.2646 115.565 28.0319 115.565 29.1949C115.565 30.1127 115.809 30.7939 116.296 31.2386C116.788 31.6776 117.412 31.8372 118.166 31.7175C118.92 31.5921 119.669 31.193 120.414 30.5203C120.519 30.4291 120.615 30.392 120.704 30.4091C120.799 30.4205 120.859 30.4775 120.885 30.5802C120.911 30.6771 120.893 30.7854 120.83 30.9051C120.641 31.2757 120.375 31.6548 120.028 32.0424C119.683 32.4301 119.235 32.7636 118.685 33.0429C118.139 33.3223 117.519 33.4619 116.822 33.4619Z" fill="black"/>
<path d="M100.074 33.4618C99.299 33.4618 98.6439 33.3449 98.1097 33.1111C97.5756 32.8717 97.1664 32.5097 96.8838 32.0252C96.606 31.5406 96.4675 30.9362 96.4675 30.2122C96.4675 29.5339 96.606 28.958 96.8838 28.4849C97.1664 28.0061 97.5907 27.5813 98.1567 27.2108C98.7282 26.8345 99.5059 26.4383 100.491 26.0222C100.842 25.8796 101.19 25.7342 101.537 25.586C101.882 25.4321 102.204 25.2924 102.503 25.167C102.875 25.0017 103.247 24.8392 103.619 24.6796C103.996 24.52 104.355 24.3746 104.695 24.2434C104.999 24.1237 105.238 23.9727 105.411 23.7903C105.589 23.6079 105.715 23.3941 105.788 23.1489C105.861 22.9038 105.898 22.6074 105.898 22.2596V20.4382C105.898 19.697 105.785 19.0443 105.56 18.4799C105.334 17.9098 104.958 17.4594 104.429 17.1288C103.899 16.7982 103.199 16.6385 102.33 16.6499C101.769 16.6613 101.267 16.7411 100.821 16.8894C100.376 17.0376 100.022 17.2713 99.7599 17.5905C99.498 17.9098 99.3674 18.3231 99.3674 18.8305C99.3674 19.0244 99.3802 19.3351 99.4064 19.7626C99.412 19.8652 99.42 19.9906 99.4303 20.1388C99.4669 20.9655 99.2624 21.5641 98.8174 21.9346C98.3716 22.3052 97.9107 22.3879 97.4339 22.1826C96.9627 21.9717 96.7262 21.5527 96.7262 20.9256C96.7262 20.1902 97.0884 19.392 97.8112 18.5312C98.534 17.6704 99.4431 16.9435 100.538 16.3506C101.638 15.7578 102.708 15.4613 103.745 15.4613C104.567 15.4613 105.319 15.6437 106 16.0086C106.681 16.3677 107.223 16.9207 107.627 17.6675C108.031 18.4086 108.227 19.3322 108.216 20.4382C108.191 23.2031 108.185 25.7912 108.201 28.2027C108.206 28.7785 108.211 29.3543 108.216 29.93C108.216 30.4888 108.347 30.9278 108.609 31.2469C108.877 31.5662 109.214 31.7172 109.623 31.7002C110.037 31.6774 110.443 31.4693 110.841 31.076C110.92 30.9961 111.006 30.9591 111.101 30.9647C111.195 30.9705 111.261 31.019 111.297 31.1102C111.334 31.2014 111.318 31.3239 111.25 31.4778C111.124 31.8142 110.928 32.1334 110.661 32.4356C110.399 32.732 110.074 32.9771 109.686 33.171C109.299 33.3648 108.874 33.4618 108.413 33.4618C107.847 33.4618 107.365 33.3192 106.967 33.0342C106.568 32.7492 106.215 32.333 105.906 31.7857C105.785 31.5748 105.649 31.4237 105.497 31.3325C105.346 31.2356 105.175 31.2071 104.987 31.2469C104.798 31.2869 104.599 31.4066 104.389 31.6061C103.902 32.0337 103.465 32.3757 103.077 32.6322C102.689 32.8888 102.251 33.0912 101.764 33.2394C101.277 33.3876 100.713 33.4618 100.074 33.4618ZM101.78 31.991C102.597 31.991 103.317 31.7658 103.941 31.3154C104.569 30.865 105.052 30.3007 105.387 29.6222C105.728 28.9438 105.898 28.2883 105.898 27.6554V26.501C105.898 26.0164 105.827 25.6488 105.685 25.3979C105.549 25.1471 105.353 24.9988 105.096 24.9532C104.839 24.9076 104.522 24.9504 104.145 25.0815C102.783 25.549 101.744 26.0364 101.026 26.5437C100.313 27.0454 99.8411 27.5243 99.611 27.9803C99.3857 28.4365 99.2727 28.9125 99.2727 29.4084C99.2727 29.9558 99.3722 30.4232 99.5712 30.8108C99.7702 31.1985 100.056 31.4921 100.429 31.6916C100.805 31.8912 101.256 31.991 101.78 31.991Z" fill="black"/>
<path d="M67.3533 32.8634C67.2276 32.8634 67.1307 32.8121 67.0625 32.7095C66.9945 32.6069 66.9787 32.4986 67.0154 32.3846C67.0574 32.2649 67.1542 32.185 67.3062 32.1451C67.9769 31.9512 68.4458 31.729 68.7129 31.4782C68.9854 31.2273 69.1636 30.8396 69.2474 30.3152C69.3365 29.7849 69.3915 28.8756 69.4124 27.5872C69.4491 25.763 69.4491 23.8817 69.4124 21.9434C69.4019 21.0826 69.3391 20.4413 69.2238 20.0194C69.1086 19.5975 68.9095 19.2641 68.6265 19.0189C68.3488 18.7738 67.8799 18.483 67.2198 18.1467C67.1045 18.084 67.0259 18.007 66.984 17.9157C66.9421 17.8189 66.9421 17.7276 66.984 17.6421C67.0259 17.5509 67.0992 17.4796 67.2041 17.4284C67.6494 17.2117 68.0974 16.9837 68.5479 16.7443C69.0037 16.5048 69.4648 16.2625 69.9311 16.0174C70.2926 15.8179 70.6567 15.6183 71.0235 15.4188C71.1859 15.396 71.3195 15.4046 71.4243 15.4445C71.5343 15.4844 71.6129 15.5699 71.66 15.701C71.7072 15.8264 71.7308 16.0031 71.7308 16.2312C71.7308 16.6416 71.8146 16.9666 71.9823 17.206C72.1552 17.4454 72.3962 17.5652 72.7053 17.5652C73.0144 17.5595 73.3654 17.4141 73.7583 17.1291C74.7644 16.4165 75.7781 15.9319 76.7998 15.6754C77.8266 15.4188 78.7671 15.4217 79.6208 15.6839C80.4805 15.9404 81.1667 16.4564 81.6801 17.2317C81.9786 17.6935 82.3169 17.9443 82.6942 17.9842C83.0715 18.0184 83.5269 17.8274 84.0618 17.4112C85.4397 16.3224 86.8359 15.6981 88.2504 15.5385C89.6698 15.3732 90.8359 15.701 91.7474 16.5219C92.6644 17.3429 93.1125 18.5885 93.091 20.2589C93.0704 21.5187 93.06 22.7529 93.06 23.9615C93.06 25.1701 93.0704 26.3787 93.091 27.5872C93.1022 28.9098 93.1412 29.8248 93.2089 30.3322C93.2829 30.8396 93.4556 31.2187 93.7279 31.4696C94.0001 31.7147 94.4904 31.9342 95.1973 32.128C95.3494 32.168 95.4465 32.2477 95.4887 32.3674C95.53 32.4871 95.5141 32.6012 95.4409 32.7095C95.3677 32.8121 95.2578 32.8634 95.1113 32.8634C93.8011 32.8578 92.709 32.8549 91.8341 32.8549C90.9641 32.8492 89.9213 32.852 88.7058 32.8634C88.58 32.8634 88.4837 32.815 88.4152 32.718C88.3523 32.6154 88.3396 32.5071 88.3762 32.3931C88.4128 32.2734 88.5068 32.1907 88.6588 32.1451C89.345 31.9399 89.8218 31.7176 90.0893 31.4782C90.3567 31.2387 90.5295 30.8595 90.6083 30.3408C90.6918 29.8163 90.7468 28.8985 90.773 27.5872C90.789 26.4984 90.7969 25.4181 90.7969 24.3464C90.7969 23.2689 90.789 22.1885 90.773 21.1054C90.7523 19.8855 90.4061 18.8821 89.7358 18.0954C89.0648 17.3087 88.2106 16.8925 87.1734 16.8469C86.1418 16.7956 85.1094 17.1832 84.0769 18.0098C83.5006 18.4659 83.0819 19.0702 82.82 19.8227C82.5581 20.5753 82.4188 21.4589 82.4029 22.4736C82.3766 23.9558 82.3798 25.6604 82.4108 27.5872V27.7583C82.4371 29.0182 82.4841 29.8933 82.5525 30.3835C82.6258 30.8681 82.7985 31.2329 83.0715 31.4782C83.3438 31.7233 83.8286 31.9399 84.5251 32.128C84.6771 32.168 84.7742 32.2477 84.8156 32.3674C84.8578 32.4871 84.8419 32.6012 84.7687 32.7095C84.6954 32.8121 84.588 32.8634 84.4463 32.8634C83.3724 32.8463 82.3034 32.8377 81.2399 32.8377C80.182 32.8377 79.1129 32.8463 78.0336 32.8634C77.9079 32.8634 77.811 32.815 77.7428 32.718C77.68 32.6154 77.6669 32.5071 77.7036 32.3931C77.7402 32.2734 77.8345 32.1907 77.9865 32.1451C78.6781 31.9399 79.1548 31.7176 79.417 31.4782C79.6837 31.2329 79.8596 30.8511 79.9432 30.3322C80.0276 29.8135 80.0793 28.8985 80.1008 27.5872C80.1159 26.5611 80.1215 25.5293 80.1159 24.4917C80.1111 23.4484 80.1008 22.2969 80.0849 21.037C80.0642 19.8227 79.7099 18.8336 79.0239 18.0697C78.3428 17.3001 77.4835 16.8982 76.4461 16.864C75.414 16.8241 74.4002 17.2089 73.4048 18.0184C72.9908 18.3547 72.6607 18.7595 72.4145 19.2327C72.1735 19.7002 72.0006 20.2047 71.8958 20.7462C71.7962 21.2821 71.7412 21.8579 71.7308 22.4736C71.715 23.3572 71.7072 24.2323 71.7072 25.0989C71.7072 25.9597 71.715 26.8605 71.7308 27.8011C71.757 29.0381 71.8067 29.9047 71.8801 30.4007C71.9587 30.8909 72.1342 31.2587 72.4066 31.5038C72.6791 31.7489 73.1558 31.957 73.837 32.128C73.9889 32.168 74.0858 32.2477 74.1278 32.3674C74.1697 32.4871 74.154 32.6012 74.0806 32.7095C74.0125 32.8121 73.9051 32.8634 73.7583 32.8634C72.6791 32.8463 71.6103 32.8377 70.552 32.8377C69.4988 32.8377 68.4327 32.8463 67.3533 32.8634Z" fill="black"/>
<path d="M51.8484 42.5686C50.8162 42.5686 50.1797 42.1923 49.9386 41.4398C49.6976 40.693 49.8705 40.0973 50.4573 39.6526C51.0441 39.2136 51.7881 39.3419 52.6893 40.0374C53.0246 40.3053 53.3756 40.4479 53.7423 40.465C54.1091 40.4877 54.4549 40.368 54.7797 40.1059C55.1098 39.8436 55.3875 39.436 55.6127 38.8829C55.7961 38.4099 55.9822 37.9338 56.1708 37.4549C56.3646 36.976 56.5532 36.5 56.7366 36.0268C56.8938 35.6392 57.0824 35.1489 57.3025 34.556C57.4125 34.2881 57.4727 34.0486 57.4831 33.8377C57.4989 33.6325 57.4753 33.4131 57.4125 33.1793C57.3548 32.9456 57.2448 32.6263 57.0824 32.2216C56.8414 31.6458 56.6606 31.221 56.5401 30.9474C56.4248 30.6681 56.2519 30.249 56.0214 29.6903C55.0469 27.353 54.2427 25.446 53.6088 23.9695C52.98 22.4874 52.3068 20.9538 51.589 19.369C51.3271 18.7704 51.107 18.32 50.9289 18.0179C50.7507 17.71 50.5411 17.4592 50.3001 17.2654C50.0592 17.0715 49.7448 16.9204 49.3571 16.8121C49.2156 16.7722 49.1213 16.6924 49.0742 16.5727C49.027 16.453 49.0375 16.3418 49.1056 16.2392C49.1737 16.1309 49.2837 16.0767 49.4356 16.0767C50.6407 16.0938 51.6806 16.1024 52.5556 16.1024C53.4306 16.1024 54.5335 16.0938 55.8643 16.0767C56.0162 16.0767 56.121 16.1309 56.1786 16.2392C56.2363 16.3418 56.2363 16.4558 56.1786 16.5813C56.1263 16.7067 56.0319 16.7893 55.8957 16.8292C55.2355 17.006 54.7561 17.2312 54.4575 17.5048C54.1589 17.7785 54.0043 18.1034 53.9938 18.4796C53.9834 18.8559 54.0908 19.3148 54.316 19.8564L55.1569 21.9087C55.6442 23.1059 56.0896 24.1861 56.493 25.1497C56.8964 26.1131 57.3129 27.0822 57.7425 28.0571C57.905 28.4447 58.1302 28.7126 58.4184 28.8609C58.7118 29.0034 59.0026 29.0063 59.2908 28.8694C59.5789 28.7269 59.8042 28.4533 59.9666 28.0485C60.0767 27.7806 60.184 27.5098 60.2888 27.2361C60.8756 25.7425 61.4231 24.3373 61.9313 23.0204C62.4396 21.6978 62.9059 20.4521 63.3302 19.2835C63.4664 18.8844 63.5031 18.5366 63.4402 18.2402C63.3826 17.938 63.194 17.6673 62.8744 17.4279C62.5601 17.1884 62.0806 16.9803 61.4362 16.8036C61.3 16.7694 61.2109 16.6924 61.169 16.5727C61.1271 16.4473 61.1376 16.3333 61.2005 16.2306C61.2634 16.1223 61.3681 16.0682 61.5148 16.0682C62.4317 16.091 63.2988 16.1024 64.1161 16.1024C64.9387 16.1024 65.7455 16.091 66.5367 16.0682C66.7148 16.0625 66.8379 16.1138 66.906 16.2221C66.9794 16.3247 66.9925 16.4387 66.9454 16.5642C66.8982 16.6896 66.8143 16.7694 66.6938 16.8036C66.2538 16.9119 65.8975 17.0345 65.625 17.1713C65.3526 17.3024 65.1221 17.4706 64.9334 17.6758C64.7448 17.8753 64.5746 18.1347 64.4226 18.454C64.3755 18.5566 64.3335 18.6507 64.2968 18.7362C64.2654 18.8159 64.2262 18.91 64.179 19.0184C62.801 22.5529 61.5882 25.6542 60.5403 28.3222C60.3202 28.8866 60.1212 29.3882 59.943 29.8272C59.7649 30.2662 59.5554 30.7793 59.3143 31.3664C59.0471 32.0391 58.8166 32.6149 58.6227 33.0938C58.4289 33.5727 58.2062 34.1342 57.9547 34.7784C57.4675 36.044 56.9593 37.3466 56.4301 38.6863C56.0738 39.5928 55.6442 40.3338 55.1413 40.9097C54.6435 41.4911 54.1143 41.913 53.5538 42.1753C52.9931 42.4374 52.4247 42.5686 51.8484 42.5686Z" fill="black"/>
<path d="M39.2663 33.4618C38.4909 33.4618 37.836 33.3449 37.3016 33.1111C36.7672 32.8717 36.3585 32.5097 36.0756 32.0252C35.7979 31.5406 35.6591 30.9362 35.6591 30.2122C35.6591 29.5339 35.7979 28.958 36.0756 28.4849C36.3585 28.0061 36.7829 27.5813 37.3488 27.2108C37.9198 26.8345 38.6979 26.4383 39.6829 26.0222C40.0339 25.8796 40.3823 25.7342 40.7281 25.586C41.0739 25.4321 41.3961 25.2924 41.6947 25.167C42.0667 25.0017 42.4387 24.8392 42.8107 24.6796C43.1879 24.52 43.5468 24.3746 43.8874 24.2434C44.1913 24.1237 44.4296 23.9727 44.6025 23.7903C44.7806 23.6079 44.9064 23.3941 44.9797 23.1489C45.0531 22.9038 45.0898 22.6074 45.0898 22.2596V20.4382C45.0898 19.697 44.9771 19.0443 44.7518 18.4799C44.5266 17.9098 44.1493 17.4594 43.6201 17.1288C43.091 16.7982 42.3916 16.6385 41.5218 16.6499C40.9613 16.6613 40.4583 16.7411 40.0129 16.8894C39.5676 17.0376 39.2139 17.2713 38.952 17.5905C38.69 17.9098 38.559 18.3231 38.559 18.8305C38.559 19.0244 38.5721 19.3351 38.5983 19.7626C38.6035 19.8652 38.6114 19.9906 38.6219 20.1388C38.6585 20.9655 38.4542 21.5641 38.0089 21.9346C37.5635 22.3052 37.1025 22.3879 36.6257 22.1826C36.1542 21.9717 35.9184 21.5527 35.9184 20.9256C35.9184 20.1902 36.28 19.392 37.003 18.5312C37.726 17.6704 38.635 16.9435 39.73 16.3506C40.8302 15.7578 41.8991 15.4613 42.9364 15.4613C43.759 15.4613 44.5109 15.6437 45.192 16.0086C45.873 16.3677 46.4154 16.9207 46.8188 17.6675C47.2222 18.4086 47.4187 19.3322 47.4082 20.4382C47.382 23.2031 47.3767 25.7912 47.3925 28.2027C47.3977 28.7785 47.4029 29.3543 47.4082 29.93C47.4082 30.4888 47.5392 30.9278 47.8011 31.2469C48.0683 31.5662 48.4063 31.7172 48.815 31.7002C49.2288 31.6774 49.6349 31.4693 50.033 31.076C50.1117 30.9961 50.1981 30.9591 50.2924 30.9647C50.3867 30.9705 50.4522 31.019 50.4889 31.1102C50.5255 31.2014 50.5098 31.3239 50.4417 31.4778C50.3159 31.8142 50.1195 32.1334 49.8523 32.4356C49.5904 32.732 49.2655 32.9771 48.8778 33.171C48.4901 33.3648 48.0657 33.4618 47.6046 33.4618C47.0388 33.4618 46.5568 33.3192 46.1586 33.0342C45.7604 32.7492 45.4068 32.333 45.0976 31.7857C44.9771 31.5748 44.8409 31.4237 44.6889 31.3325C44.5371 31.2356 44.3668 31.2071 44.1781 31.2469C43.9896 31.2869 43.7905 31.4066 43.5809 31.6061C43.0936 32.0337 42.6562 32.3757 42.2684 32.6322C41.8807 32.8888 41.4433 33.0912 40.956 33.2394C40.4688 33.3876 39.9055 33.4618 39.2663 33.4618ZM40.9717 31.991C41.789 31.991 42.5094 31.7658 43.1329 31.3154C43.7617 30.865 44.2437 30.3007 44.5789 29.6222C44.9195 28.9438 45.0898 28.2883 45.0898 27.6554V26.501C45.0898 26.0164 45.0191 25.6488 44.8776 25.3979C44.7414 25.1471 44.5449 24.9988 44.2882 24.9532C44.0314 24.9076 43.7145 24.9504 43.3372 25.0815C41.975 25.549 40.935 26.0364 40.2172 26.5437C39.5047 27.0454 39.0331 27.5243 38.8026 27.9803C38.5773 28.4365 38.4647 28.9125 38.4647 29.4084C38.4647 29.9558 38.5643 30.4232 38.7634 30.8108C38.9625 31.1985 39.248 31.4921 39.62 31.6916C39.9972 31.8912 40.4478 31.991 40.9717 31.991Z" fill="black"/>
<path d="M23.345 32.8548C23.2192 32.8548 23.1223 32.8034 23.0542 32.7009C22.9861 32.5925 22.9704 32.4785 23.007 32.3588C23.0437 32.239 23.138 32.1593 23.2899 32.1193C23.9816 31.9369 24.4635 31.726 24.7359 31.4865C25.0084 31.2414 25.1866 30.8566 25.2704 30.3321C25.3595 29.802 25.4145 28.887 25.4354 27.5872C25.4459 26.7093 25.4512 25.8655 25.4512 25.056C25.4563 24.2465 25.4538 23.4512 25.4433 22.6702C25.4433 22.3452 25.4407 22.1029 25.4354 21.9433C25.4249 21.0996 25.3568 20.4611 25.2311 20.0278C25.1106 19.5946 24.9062 19.2497 24.6181 18.9931C24.3299 18.7366 23.8741 18.4544 23.2506 18.1466C23.1301 18.0838 23.0489 18.0069 23.007 17.9157C22.9651 17.8188 22.9651 17.7276 23.007 17.642C23.0489 17.5508 23.1223 17.4795 23.2271 17.4283C23.8191 17.1261 24.3875 16.8297 24.9325 16.5389C25.2678 16.3565 25.6083 16.1769 25.9541 16.0002C26.2999 15.8235 26.6641 15.6382 27.0465 15.4444C27.2142 15.4159 27.3504 15.4244 27.4551 15.47C27.56 15.5099 27.6359 15.5926 27.683 15.718C27.7303 15.8377 27.7538 16.0087 27.7538 16.2311C27.7538 16.6301 27.8403 16.9522 28.0132 17.1973C28.1913 17.4425 28.4296 17.5708 28.7283 17.5822C29.027 17.5879 29.3517 17.4539 29.7028 17.1803C30.1849 16.804 30.6118 16.4962 30.9838 16.2567C31.3611 16.0173 31.7409 15.8263 32.1233 15.6838C32.5058 15.5356 32.8936 15.4615 33.2865 15.4615C34.3238 15.4615 34.9447 15.8662 35.1491 16.6757C35.3586 17.4795 35.1516 18.1323 34.5282 18.634C33.91 19.13 33.1476 19.0245 32.2412 18.3176C31.5078 17.7532 30.7978 17.5565 30.1115 17.7276C29.4251 17.8929 28.8645 18.3945 28.4296 19.2326C28 20.0706 27.7748 21.151 27.7538 22.4735C27.7224 24.1723 27.7224 25.8769 27.7538 27.5872C27.7748 28.8984 27.8455 29.8105 27.966 30.3236C28.0917 30.8367 28.3458 31.2072 28.7283 31.4353C29.116 31.6576 29.8259 31.8857 30.8581 32.1193C31.01 32.1536 31.107 32.2306 31.1488 32.3503C31.1908 32.47 31.175 32.5839 31.1017 32.6923C31.0283 32.8007 30.9183 32.8548 30.7716 32.8548C29.3884 32.8376 28.0629 32.8291 26.795 32.8291C25.5324 32.8291 24.3824 32.8376 23.345 32.8548Z" fill="black"/>
<path d="M11.9141 33.3848C9.33639 33.3848 7.15162 32.8404 5.35979 31.7515C3.57319 30.6626 2.23193 29.1776 1.33602 27.2963C0.44534 25.4093 0 23.2744 0 20.8913C0 18.7022 0.450579 16.6727 1.35173 14.8029C2.25289 12.933 3.62034 11.4279 5.45409 10.2878C7.29308 9.14191 9.55387 8.56897 12.2364 8.56897C12.9751 8.56897 13.6981 8.60603 14.4054 8.68014C15.118 8.74855 15.8724 8.87112 16.6688 9.04784C17.4651 9.21887 18.2982 9.4583 19.1679 9.76615C19.3146 9.82316 19.4351 9.88587 19.5294 9.95428C19.6238 10.0227 19.6971 10.1111 19.7494 10.2194C19.8018 10.322 19.8333 10.4503 19.8438 10.6042C19.8909 11.4365 19.9459 12.2261 20.0088 12.9729C20.0717 13.714 20.1451 14.4694 20.2289 15.239C20.2551 15.4385 20.2131 15.5924 20.1031 15.7007C19.9984 15.809 19.8778 15.8461 19.7416 15.8119C19.6054 15.772 19.5111 15.6608 19.4587 15.4784C19.0763 14.0361 18.5235 12.8646 17.8005 11.9638C17.0827 11.0631 16.226 10.4103 15.2306 10.0056C14.2404 9.59512 13.1165 9.3899 11.8591 9.3899C9.88915 9.3899 8.25707 9.89157 6.963 10.8949C5.67414 11.8983 4.72321 13.2323 4.11021 14.8969C3.49722 16.5559 3.18025 18.403 3.15929 20.4382C3.12261 22.8154 3.45793 24.9276 4.16523 26.7746C4.87777 28.6161 5.93873 30.0584 7.34809 31.1016C8.75745 32.1448 10.4602 32.6665 12.4564 32.6665C13.3314 32.6665 14.133 32.561 14.8612 32.3501C15.5947 32.1335 16.2103 31.8741 16.7081 31.5719C17.101 31.3382 17.3761 31.0759 17.5332 30.7852C17.6905 30.4888 17.769 30.0869 17.769 29.5795V27.9376C17.769 26.6037 17.7167 25.6602 17.6118 25.1071C17.5071 24.5485 17.2687 24.138 16.8967 23.8757C16.5299 23.6135 15.8855 23.3826 14.9634 23.1831C14.8062 23.1489 14.704 23.0662 14.6569 22.9351C14.6097 22.7983 14.6228 22.67 14.6962 22.5503C14.7748 22.4306 14.8952 22.3736 15.0577 22.3793C16.1894 22.4135 17.3394 22.4306 18.5077 22.4306C19.6814 22.4249 20.8628 22.4049 22.0521 22.3707C22.1779 22.3651 22.2774 22.4192 22.3508 22.5332C22.4242 22.6415 22.4425 22.7612 22.4058 22.8924C22.3692 23.0235 22.2722 23.1119 22.115 23.1574C21.6068 23.3057 21.2296 23.5166 20.9834 23.7902C20.7371 24.0638 20.5642 24.5114 20.4646 25.1328C20.3651 25.7485 20.3153 26.6834 20.3153 27.9376V30.4175C20.3153 30.5714 20.2943 30.7054 20.2525 30.8194C20.2158 30.9334 20.1608 31.0304 20.0874 31.1101C20.014 31.19 19.9223 31.2583 19.8123 31.3154C18.8535 31.8171 17.9472 32.219 17.0931 32.5211C16.2392 32.8233 15.393 33.0428 14.5547 33.1795C13.7217 33.3164 12.8415 33.3848 11.9141 33.3848Z" fill="black"/>
</svg>
