<svg width="163" height="40" viewBox="0 0 163 40" fill="none" xmlns="http://www.w3.org/2000/svg">
<path d="M0.480957 4.31929V6.28266L1.69964 6.32661L2.90364 6.37057L2.97705 16.92L3.05047 27.4694L5.50252 27.5134L7.96925 27.5427L7.99861 22.6782L8.04266 17.7991L11.4932 17.7112C13.3872 17.6526 15.2373 17.5354 15.6044 17.4475C17.7774 16.876 19.7303 15.3522 20.5819 13.594C21.2132 12.2607 21.3748 11.3376 21.3013 9.52074C21.2426 8.08485 21.1839 7.85042 20.6993 6.82478C19.9505 5.24237 18.8199 4.09951 17.2929 3.36691C15.2813 2.39989 14.7234 2.34128 7.16169 2.34128H0.480957V4.31929ZM13.9746 6.66361C15.4575 7.17643 16.1917 8.27532 16.1917 9.9603C16.1917 11.2936 15.9714 11.9237 15.2667 12.6563C14.3416 13.6233 13.6075 13.7845 10.5241 13.7405L8.04266 13.6966L7.99861 10.0629L7.96925 6.44383H10.6709C12.6678 6.44383 13.5194 6.50244 13.9746 6.66361Z" fill="black"/>
<path d="M112.996 3.46945C111.337 4.53905 111.352 7.05918 113.026 8.02621C113.495 8.28995 113.789 8.34856 114.509 8.31925C115.257 8.2753 115.507 8.18739 116.006 7.79178C117.988 6.20937 116.887 3.0885 114.347 3.07385C113.789 3.07385 113.451 3.17641 112.996 3.46945ZM114.127 3.87971C113.936 4.11414 114.039 4.37787 114.318 4.33392C114.729 4.26066 115.155 4.07018 115.155 3.95297C115.155 3.89436 115.287 3.80645 115.448 3.76249C115.962 3.63062 117.063 5.15443 116.623 5.41816C116.535 5.47677 116.461 5.60864 116.476 5.72585C116.535 6.15076 116.461 6.29728 116.182 6.29728C116.021 6.29728 115.889 6.39985 115.889 6.51706C115.889 6.63428 115.962 6.73684 116.036 6.73684C116.138 6.73684 116.138 6.8394 116.036 7.02988C115.948 7.19105 115.815 7.29362 115.757 7.26431C115.698 7.22036 115.566 7.35222 115.463 7.55735C115.125 8.3046 114.934 7.87969 114.92 6.35589C114.92 4.87604 114.832 4.50974 114.523 4.5537C113.965 4.62696 113.745 4.52439 113.716 4.1874C113.701 3.98227 113.774 3.80645 113.877 3.76249C113.965 3.73319 113.877 3.73319 113.657 3.76249C113.349 3.80645 113.246 3.76249 113.246 3.60132C113.246 3.4255 113.334 3.38154 113.598 3.4548C113.818 3.49875 113.995 3.46945 114.068 3.33758C114.171 3.19106 114.2 3.20572 114.244 3.41084C114.274 3.55736 114.215 3.76249 114.127 3.87971ZM115.111 3.30828C115.067 3.35224 114.934 3.36689 114.832 3.32293C114.714 3.27898 114.758 3.23502 114.92 3.23502C115.081 3.22037 115.169 3.26432 115.111 3.30828ZM112.468 4.56835C112.424 4.68556 112.38 4.64161 112.38 4.48044C112.365 4.31927 112.409 4.23135 112.453 4.28996C112.497 4.33392 112.512 4.46579 112.468 4.56835ZM112.174 6.03355C112.13 6.13611 112.101 6.06285 112.101 5.85772C112.101 5.65259 112.13 5.57933 112.174 5.66725C112.203 5.76981 112.203 5.94563 112.174 6.03355ZM114.274 6.85406C114.274 6.91266 114.142 6.97127 113.995 6.97127C113.833 6.97127 113.745 6.91266 113.774 6.85406C113.818 6.79545 113.951 6.73684 114.068 6.73684C114.186 6.73684 114.274 6.79545 114.274 6.85406ZM113.246 7.52805C113.246 7.68922 112.967 7.74783 112.879 7.61596C112.835 7.5427 112.893 7.46944 113.011 7.46944C113.143 7.46944 113.246 7.49874 113.246 7.52805ZM113.907 8.17273C113.863 8.21669 113.745 8.17273 113.642 8.07017C113.51 7.92365 113.525 7.909 113.73 7.99691C113.877 8.04087 113.951 8.12878 113.907 8.17273Z" fill="black"/>
<path d="M112.996 3.46945C111.337 4.53905 111.352 7.05918 113.026 8.02621C113.495 8.28995 113.789 8.34856 114.509 8.31925C115.257 8.2753 115.507 8.18739 116.006 7.79178C117.988 6.20937 116.887 3.0885 114.347 3.07385C113.789 3.07385 113.451 3.17641 112.996 3.46945ZM114.127 3.87971C113.936 4.11414 114.039 4.37787 114.318 4.33392C114.729 4.26066 115.155 4.07018 115.155 3.95297C115.155 3.89436 115.287 3.80645 115.448 3.76249C115.962 3.63062 117.063 5.15443 116.623 5.41816C116.535 5.47677 116.461 5.60864 116.476 5.72585C116.535 6.15076 116.461 6.29728 116.182 6.29728C116.021 6.29728 115.889 6.39985 115.889 6.51706C115.889 6.63428 115.962 6.73684 116.036 6.73684C116.138 6.73684 116.138 6.8394 116.036 7.02988C115.948 7.19105 115.815 7.29362 115.757 7.26431C115.698 7.22036 115.566 7.35222 115.463 7.55735C115.125 8.3046 114.934 7.87969 114.92 6.35589C114.92 4.87604 114.832 4.50974 114.523 4.5537C113.965 4.62696 113.745 4.52439 113.716 4.1874C113.701 3.98227 113.774 3.80645 113.877 3.76249C113.965 3.73319 113.877 3.73319 113.657 3.76249C113.349 3.80645 113.246 3.76249 113.246 3.60132C113.246 3.4255 113.334 3.38154 113.598 3.4548C113.818 3.49875 113.995 3.46945 114.068 3.33758C114.171 3.19106 114.2 3.20572 114.244 3.41084C114.274 3.55736 114.215 3.76249 114.127 3.87971ZM115.111 3.30828C115.067 3.35224 114.934 3.36689 114.832 3.32293C114.714 3.27898 114.758 3.23502 114.92 3.23502C115.081 3.22037 115.169 3.26432 115.111 3.30828ZM112.468 4.56835C112.424 4.68556 112.38 4.64161 112.38 4.48044C112.365 4.31927 112.409 4.23135 112.453 4.28996C112.497 4.33392 112.512 4.46579 112.468 4.56835ZM112.174 6.03355C112.13 6.13611 112.101 6.06285 112.101 5.85772C112.101 5.65259 112.13 5.57933 112.174 5.66725C112.203 5.76981 112.203 5.94563 112.174 6.03355ZM114.274 6.85406C114.274 6.91266 114.142 6.97127 113.995 6.97127C113.833 6.97127 113.745 6.91266 113.774 6.85406C113.818 6.79545 113.951 6.73684 114.068 6.73684C114.186 6.73684 114.274 6.79545 114.274 6.85406ZM113.246 7.52805C113.246 7.68922 112.967 7.74783 112.879 7.61596C112.835 7.5427 112.893 7.46944 113.011 7.46944C113.143 7.46944 113.246 7.49874 113.246 7.52805ZM113.907 8.17273C113.863 8.21669 113.745 8.17273 113.642 8.07017C113.51 7.92365 113.525 7.909 113.73 7.99691C113.877 8.04087 113.951 8.12878 113.907 8.17273Z" fill="black"/>
<path d="M115.345 4.20208C115.125 4.29 115.096 4.62699 115.301 4.75886C115.375 4.80281 115.58 4.77351 115.742 4.6856C115.992 4.55373 116.021 4.48047 115.874 4.30465C115.698 4.08487 115.639 4.07022 115.345 4.20208Z" fill="black"/>
<path d="M116.344 4.92002C116.344 5.08119 116.388 5.12515 116.432 5.00793C116.476 4.90537 116.461 4.7735 116.417 4.72955C116.373 4.67094 116.329 4.75885 116.344 4.92002Z" fill="black"/>
<path d="M30.7571 7.39618C28.1729 7.96761 25.9998 9.71119 24.8105 12.1727C23.9149 14.0189 23.6212 15.4401 23.6359 17.6526C23.6946 22.8394 26.5872 26.7954 30.9774 27.6306C33.8552 28.1727 36.4394 27.484 38.4363 25.6086L39.376 24.7295L39.42 26.1067L39.4641 27.4694L41.8721 27.5133C43.2523 27.528 44.3241 27.4987 44.3682 27.4108C44.4122 27.3375 44.4416 22.8247 44.4122 17.3742L44.3829 7.46944L41.9161 7.49875L39.4641 7.5427L39.42 8.81742C39.4054 9.53537 39.3466 10.1068 39.2879 10.1068C39.2438 10.1068 38.818 9.75515 38.3482 9.31559C36.41 7.52805 33.5322 6.79545 30.7571 7.39618ZM36.1751 12.0409C38.2601 12.9932 39.3907 14.9273 39.3907 17.506C39.376 19.3961 38.8768 20.7295 37.7462 21.8723C36.6743 22.9419 35.6465 23.3668 34.1048 23.3668C32.6953 23.3668 31.6821 23.0005 30.6984 22.1361C28.7749 20.4657 28.1436 17.1104 29.2888 14.6929C29.6559 13.9017 30.6984 12.7295 31.4178 12.2753C32.7246 11.4841 34.7362 11.3815 36.1751 12.0409Z" fill="black"/>
<path d="M56.2614 7.32296C52.5466 7.90904 49.566 10.6196 48.5529 14.3559C48.3473 15.0738 48.2886 15.8504 48.2886 17.5061C48.2886 20.0116 48.4648 20.9053 49.3457 22.7075C49.7422 23.528 50.168 24.1141 51.049 24.9932C52.3704 26.3266 53.5744 27.0299 55.3217 27.4841C56.7019 27.8504 59.6238 27.8504 60.9599 27.4841C63.7937 26.7222 66.143 24.6123 67.0974 22.0042C67.2883 21.4914 67.4351 21.0225 67.4351 20.9493C67.4351 20.8614 66.3486 20.8028 64.7334 20.8028H62.0318L61.9437 21.1544C61.7969 21.7551 60.5782 22.9566 59.8294 23.2496C58.8603 23.6159 57.1571 23.6013 56.2614 23.191C54.2939 22.3119 53.3395 20.4365 53.3395 17.5061C53.3395 15.1911 53.8975 13.638 55.1161 12.5391C56.3055 11.4695 57.8325 11.1618 59.521 11.6599C60.123 11.8358 60.4901 12.0702 61.0774 12.6709C61.5032 13.1105 61.885 13.6233 61.9437 13.8284L62.0318 14.2094H64.7481H67.4645L67.3617 13.7259C67.303 13.4768 66.9946 12.7002 66.6716 12.0262C65.6438 9.85775 63.7497 8.31929 61.2683 7.616C60.0055 7.26435 57.5388 7.11783 56.2614 7.32296Z" fill="black"/>
<path d="M77.4929 7.41088C73.8222 8.23139 71.1646 11.2204 70.5185 15.279C70.2542 16.8907 70.4011 19.7039 70.8122 21.0226C71.3114 22.6343 72.1043 23.9969 73.2202 25.1691C76.4798 28.5976 82.2208 28.6855 85.4217 25.3595L86.009 24.7442L86.0824 26.1068L86.1558 27.4694H88.6519H91.148V17.5061V7.54275H88.6519H86.1558L86.1118 8.81747C86.0971 9.53542 86.0384 10.1068 86.009 10.1068C85.9796 10.1068 85.6126 9.7845 85.2014 9.3889C84.3939 8.61234 83.1312 7.87974 82.0153 7.5281C80.9287 7.20575 78.7116 7.13249 77.4929 7.41088ZM82.8815 12.0409C84.0415 12.5684 84.9665 13.4768 85.5392 14.6343C85.9943 15.572 86.009 15.6453 86.009 17.5061C86.009 19.3669 85.9943 19.4401 85.5392 20.3779C84.9665 21.5354 84.0415 22.4291 82.8815 22.9713C82.1768 23.3083 81.8391 23.3669 80.7966 23.3669C79.7541 23.3669 79.4164 23.3083 78.741 22.9859C77.5223 22.3998 76.7588 21.6672 76.1714 20.4658C74.7325 17.55 75.5694 13.9164 78.0215 12.3632C79.4164 11.4841 81.3839 11.3669 82.8815 12.0409Z" fill="black"/>
<path d="M127.121 7.33759C123.788 7.8211 121.013 9.96029 119.78 12.9932C119.207 14.3998 118.928 16.3632 119.016 18.1654C119.295 23.3082 122.261 26.7954 127.048 27.6306C129.5 28.0555 131.952 27.7038 134.022 26.6196C135.711 25.7258 137.737 23.3229 138.28 21.5646L138.368 21.2423H135.652H132.936L132.715 21.6379C132.392 22.2679 131.599 22.9566 130.792 23.3229C130.219 23.572 129.793 23.6452 128.883 23.6452C127.576 23.6452 126.739 23.3522 125.741 22.5756C125.066 22.0335 124.287 20.6269 124.17 19.7185L124.067 19.0445H131.35C136.225 19.0445 138.662 19.0006 138.721 18.898C138.956 18.5317 138.809 15.2936 138.515 14.1654C137.252 9.2863 132.657 6.53173 127.121 7.33759ZM131.012 11.7478C131.453 11.9383 132.025 12.2753 132.26 12.4951C132.862 12.9932 133.494 14.1654 133.596 15.0006L133.699 15.6746H128.898C123.539 15.6746 123.935 15.7771 124.346 14.5464C124.845 13.0812 125.858 12.0409 127.239 11.5427C128.311 11.1617 129.94 11.2497 131.012 11.7478Z" fill="black"/>
<path d="M152.508 7.32297C150.922 7.5574 149.645 8.14347 148.529 9.13981C148.118 9.50611 147.751 9.8138 147.692 9.8138C147.648 9.8138 147.604 9.30098 147.574 8.67095L147.53 7.54275H145.108H142.685V17.5061V27.4694H145.108H147.53L147.619 21.2423C147.663 17.1544 147.751 14.8541 147.868 14.5317C148.558 12.4951 150.012 11.4988 152.229 11.5134C154.167 11.5134 155.445 12.29 156.208 13.9457L156.634 14.8687L156.707 21.1691L156.781 27.4694H159.203H161.626V20.583C161.626 13.7698 161.626 13.6819 161.288 12.5977C160.451 9.96032 158.616 8.14347 156.179 7.5574C155.048 7.27901 153.448 7.17645 152.508 7.32297Z" fill="black"/>
<path d="M102.968 7.67458C100.824 8.14344 99.297 8.93465 97.8875 10.3266C96.0227 12.1581 95.0683 14.3998 94.9362 17.2277C94.6866 22.2826 97.1974 26.1507 101.72 27.6452C102.792 28.0115 103.1 28.0408 105.273 28.0555H107.666L108.841 29.2276C109.487 29.8723 110.016 30.4291 110.016 30.4877C110.016 30.5463 109.737 30.854 109.399 31.191C108.621 31.9529 107.285 32.6269 106.139 32.832C103.761 33.2569 101.059 31.8796 99.7375 29.5353C99.4732 29.0811 99.2236 28.7441 99.1796 28.7734C99.1208 28.8027 98.0196 29.2423 96.7422 29.7258C95.4501 30.224 94.3636 30.6489 94.3342 30.6928C94.2167 30.7954 95.2299 32.5097 95.9053 33.3448C97.3882 35.191 99.4879 36.5536 101.867 37.2423C103.57 37.7258 106.771 37.7258 108.547 37.2423C111.587 36.4071 114.435 34.1946 115.654 31.7038C116.403 30.1947 116.461 30.3558 114.112 27.9236L112.027 25.7698L112.761 25.0079C114.655 23.0591 115.492 20.8614 115.492 17.7991C115.492 15.7185 115.213 14.4438 114.494 12.9639C113.216 10.3998 111.014 8.61231 108.18 7.83575C106.947 7.51341 104.172 7.4255 102.968 7.67458ZM107.006 12.1727C108.768 12.8321 110.045 14.561 110.295 16.6416C110.794 20.7881 108.635 23.7331 105.097 23.7331C102.997 23.7331 101.485 22.7661 100.574 20.832C100.119 19.8797 100.105 19.7918 100.105 17.8724C100.105 16.1288 100.149 15.7918 100.457 15.0152C100.927 13.8431 102.16 12.6123 103.261 12.1874C104.363 11.7771 105.904 11.7625 107.006 12.1727Z" fill="black"/>
<rect x="111.114" y="3" width="5.97356" height="5.96097" rx="2.98048" fill="black"/>
</svg>
