<svg width="189" height="40" viewBox="0 0 189 40" fill="none" xmlns="http://www.w3.org/2000/svg">
<path d="M186.211 20.8611H186.638V18.7019L187.509 20.8611H187.669L188.53 18.7019V20.8611H189V18.0911H188.346L187.61 20.0353L186.856 18.0911H186.211V20.8611ZM184.453 20.8611H184.922V18.4699H185.734V18.0911H183.633V18.4699H184.453V20.8611ZM173.143 28.9413H176.047C175.913 27.1279 175.868 25.4063 175.868 22.9272C175.868 20.7694 176.605 19.4379 178.214 19.4379C179.555 19.4379 180.203 20.4249 180.203 22.3764V24.1437C180.203 26.0489 180.136 27.6098 180.024 28.9413H182.861C182.795 27.7707 182.772 26.6688 182.772 25.498C182.772 24.3732 182.817 22.8812 182.817 22.0317C182.817 18.8182 181.208 17.6934 179.309 17.6934C177.79 17.6934 176.628 18.5655 175.913 19.7592H175.868V18.8182C175.868 16.8668 175.913 14.8928 176.047 12.781H173.143C173.254 14.9848 173.321 17.0506 173.321 19.7592V21.963C173.321 24.6488 173.254 26.7377 173.143 28.9413ZM169.364 29.1457C170.19 29.1457 171.062 28.9159 171.553 28.7093V27.9289C171.286 28.0207 170.906 28.0896 170.615 28.0896C169.297 28.0896 169.163 27.0565 169.163 25.5644C169.118 22.8787 169.14 20.8818 169.185 19.2519H171.353L171.442 18.0122H169.208C169.252 16.7497 169.275 15.4871 169.386 14.2706L169.297 14.2017L166.593 15.3496C166.638 16.4513 166.66 17.3005 166.683 18.0122H165.253L165.163 19.2519H166.683C166.66 21.4326 166.549 23.9349 166.549 26.0466C166.549 28.0435 167.465 29.1457 169.364 29.1457ZM160.613 28.9413H163.518C163.384 26.7377 163.339 24.6717 163.339 21.963V19.7592C163.339 17.0506 163.384 14.9848 163.518 12.781H160.613C160.748 14.9848 160.792 17.0506 160.792 19.7592V21.963C160.792 24.6717 160.748 26.7377 160.613 28.9413ZM151.846 25.7942C151.846 24.6234 152.404 24.0495 153.209 23.7282C153.991 23.4069 154.684 23.2002 155.286 23.0167V26.0466C155.286 27.2174 154.415 27.7911 153.477 27.7911C152.337 27.7911 151.846 27.1714 151.846 25.7942ZM152.092 29.1683C153.566 29.1683 154.549 28.6175 155.376 27.6305C155.577 28.4569 156.18 29.0766 157.253 29.0766C157.923 29.0766 158.504 28.9391 159.129 28.6406V28.0896C158.214 28.2502 157.767 27.9749 157.767 26.299C157.767 24.9219 157.834 22.8787 157.834 21.6621C157.834 18.9075 156.27 17.5761 153.723 17.5761C152.382 17.5761 150.93 18.0811 149.678 19.0221L149.857 20.698H150.058C150.796 19.5732 151.846 19.0453 153.052 19.0453C154.661 19.0453 155.286 19.9863 155.286 21.3177C155.286 22.1444 155.086 22.305 152.695 22.9018C150.528 23.4758 149.232 24.3479 149.232 26.299C149.232 27.7222 149.969 29.1683 152.092 29.1683ZM140.916 22.2818C140.983 20.5602 141.541 18.5173 143.128 18.5173C144.669 18.5173 145.161 20.285 145.206 22.2818H140.916ZM143.463 29.1683C145.183 29.1683 146.3 28.7093 147.105 28.0896L147.462 26.8501L147.261 26.6892C146.457 27.4467 145.362 27.906 144.155 27.906C141.899 27.906 140.893 26.0006 140.893 23.246H147.73C147.954 19.9405 146.703 17.5761 143.195 17.5761C140.156 17.5761 138.034 19.6421 138.034 23.4758C138.034 27.2403 140.335 29.1683 143.463 29.1683ZM132.914 28.9413H136.086C135.975 26.8984 135.908 25.0158 135.908 22.5827V19.1395C135.908 16.7064 135.975 14.8239 136.086 12.781H132.914C133.025 14.8239 133.092 16.7064 133.092 19.1395V19.7135C132.042 19.7363 130.858 19.7592 129.272 19.7592C127.685 19.7592 126.501 19.7363 125.451 19.7135V19.1395C125.451 16.7064 125.518 14.8239 125.63 12.781H122.457C122.569 14.8239 122.636 16.7064 122.636 19.1395V22.5827C122.636 25.0158 122.569 26.8984 122.457 28.9413H125.63C125.518 26.8984 125.451 25.0158 125.451 22.5827V21.2973C126.501 21.2742 127.685 21.2284 129.272 21.2284C130.858 21.2284 132.042 21.2742 133.092 21.2973V22.5827C133.092 25.0158 133.025 26.8984 132.914 28.9413ZM109.988 25.794C109.988 24.6234 110.547 24.0495 111.351 23.7282C112.133 23.4066 112.826 23.2 113.429 23.0165V26.0466C113.429 27.2174 112.558 27.7911 111.619 27.7911C110.48 27.7911 109.988 27.1714 109.988 25.794ZM110.234 29.1683C111.709 29.1683 112.692 28.6175 113.518 27.6305C113.719 28.4569 114.323 29.0766 115.395 29.0766C116.066 29.0766 116.646 28.9391 117.272 28.6406V28.0896C116.356 28.2502 115.909 27.9749 115.909 26.299C115.909 24.9219 115.976 22.8787 115.976 21.6621C115.976 18.9075 114.412 17.5761 111.865 17.5761C110.524 17.5761 109.072 18.0811 107.821 19.0221L108 20.698H108.201C108.938 19.5732 109.988 19.0453 111.195 19.0453C112.803 19.0453 113.429 19.9863 113.429 21.3177C113.429 22.1441 113.228 22.305 110.837 22.9018C108.67 23.4758 107.374 24.3479 107.374 26.299C107.374 27.7222 108.111 29.1683 110.234 29.1683ZM103.495 28.9413H106.69L102.132 22.4221C103.428 21.0907 105.014 19.5065 106.578 18.0376H104.344C103.16 19.5526 101.864 21.0446 100.993 22.0548C100.389 22.7205 100.166 22.858 99.8532 22.8812H99.7636V19.7592C99.7636 17.0506 99.8084 14.9845 99.9425 12.7807H97.038C97.1495 14.9845 97.2166 17.0506 97.2166 19.7592V21.963C97.2166 24.6488 97.1495 26.7377 97.038 28.9413H99.9425C99.8307 27.2428 99.7862 25.5898 99.7636 23.6847C100.032 23.7304 100.21 23.9142 100.501 24.419C101.417 25.7964 102.445 27.3114 103.495 28.9413ZM88.4527 29.2857C89.9945 29.2857 91.1116 28.4133 91.8489 27.2196H91.8937C91.8937 27.9771 91.8714 28.2755 91.8489 28.9413H94.5523C94.463 27.4492 94.4407 26.0488 94.4407 24.2355V22.7434C94.4407 20.93 94.4855 19.5297 94.6193 18.0376H91.7148C91.8489 19.9659 91.8937 21.7793 91.8937 23.8913C91.8937 26.2098 91.1561 27.5412 89.5477 27.5412C88.207 27.5412 87.559 26.5539 87.559 24.5107V22.9729C87.559 20.93 87.6036 19.369 87.6709 18.0376H84.8781C84.9449 19.2084 84.9897 20.31 84.9897 21.4808C84.9897 22.6056 84.9449 24.0977 84.9449 24.9472C84.9449 28.1606 86.5538 29.2857 88.4527 29.2857ZM72.7403 28.9413H75.6446C75.5105 27.013 75.466 25.1996 75.466 22.6974C75.466 20.7691 76.2033 19.4379 77.8119 19.4379C79.1527 19.4379 79.8004 20.4249 79.8004 22.3761V24.1437C79.8004 26.0489 79.7336 27.6098 79.6217 28.9413H82.4595C82.3925 27.7705 82.3699 26.6688 82.3699 25.498C82.3699 24.3732 82.4145 22.8812 82.4145 22.0317C82.4145 18.8182 80.7836 17.6932 78.9067 17.6932C77.3651 17.6932 76.2255 18.5655 75.5105 19.7592H75.466C75.466 19.0017 75.4883 18.7033 75.5105 18.0376H72.7403C72.8519 19.5297 72.9189 20.93 72.9189 22.7434V24.2355C72.9189 26.0488 72.8519 27.4492 72.7403 28.9413ZM63.9941 25.794C63.9941 24.6234 64.5528 24.0495 65.3571 23.7282C66.1392 23.4066 66.8319 23.2 67.4351 23.0165V26.0466C67.4351 27.2174 66.5637 27.7911 65.6253 27.7911C64.4857 27.7911 63.9941 27.1714 63.9941 25.794ZM62.6314 15.4643H69.0437V14.2477H62.6314V15.4643ZM64.2401 29.1683C65.7146 29.1683 66.6978 28.6175 67.5244 27.6305C67.7256 28.4569 68.3287 29.0766 69.4013 29.0766C70.0715 29.0766 70.6524 28.9391 71.2781 28.6406V28.0896C70.3619 28.2502 69.9151 27.9749 69.9151 26.299C69.9151 24.9219 69.9822 22.8787 69.9822 21.6621C69.9822 18.9075 68.4183 17.5761 65.871 17.5761C64.5305 17.5761 63.0782 18.0811 61.8271 19.0221L62.0057 20.698H62.2069C62.9441 19.5732 63.9941 19.0453 65.2007 19.0453C66.8094 19.0453 67.4351 19.9863 67.4351 21.3177C67.4351 22.1441 67.2339 22.305 64.8432 22.9018C62.6762 23.4758 61.38 24.3479 61.38 26.299C61.38 27.7222 62.1175 29.1683 64.2401 29.1683ZM41.5165 28.9413H43.4381C43.6615 24.8781 43.9965 21.4808 44.3988 17.8541H44.4436C45.8733 20.8151 48.0406 25.5212 49.6048 29.0102H50.2302C51.9282 25.1996 53.6712 21.504 55.4807 17.7163H55.5255C55.9501 21.5266 56.2628 25.4291 56.4862 28.9413H59.6367C58.9665 24.1206 58.2515 18.0605 57.7376 12.7807H56.3746C54.766 16.4077 52.4868 21.1824 50.6996 24.8781C48.7557 20.7691 46.7447 16.4306 45.1138 12.7807H43.7731C43.1699 18.1754 42.4101 23.5698 41.5165 28.9413ZM22.4594 32.4057L26.8217 29.8175C28.3885 28.8878 29.362 27.1554 29.362 25.2963V13.3905C29.362 10.5733 27.8869 7.94845 25.5123 6.53985L21.1495 3.95192C19.7158 3.10158 18.0827 2.65216 16.4271 2.65216C14.7713 2.65216 13.1379 3.10185 11.7039 3.95274L8.11863 6.07996C6.82672 6.84626 5.276 8.44636 4.65646 10.6951C4.63528 10.7731 4.71627 10.8384 4.78439 10.7982L12.8587 6.00805C13.942 5.36547 15.1754 5.026 16.4263 5.026C17.6772 5.026 18.9112 5.36575 19.9944 6.00832L24.3567 8.59653C26.0184 9.58244 27.051 11.4198 27.051 13.3916V25.2952C27.051 26.3092 26.5199 27.2541 25.6652 27.7611L18.6113 31.9464C18.5531 31.9811 18.5531 32.0671 18.611 32.1018L19.1204 32.4043C19.6275 32.7058 20.2052 32.8651 20.791 32.8651C21.3759 32.8651 21.9531 32.7061 22.4594 32.4057ZM4.36278 20.639L4.36332 25.8144C4.36332 27.6735 5.33687 29.4058 6.90395 30.3353L16.9399 36.2882C19.3145 37.6968 22.2647 37.6968 24.6393 36.2882L29.0021 33.7005C30.4359 32.8499 31.6312 31.6218 32.4589 30.1487C33.2871 28.6754 33.7245 26.9973 33.7243 25.2958L33.7237 21.0422C33.7237 19.5093 33.1503 17.3294 31.5645 15.6541C31.5098 15.5963 31.414 15.6354 31.414 15.7164L31.4143 25.2955C31.4143 26.5807 31.0838 27.8482 30.4584 28.9608C29.833 30.074 28.9297 31.0018 27.8464 31.6444L23.4837 34.2318C21.8214 35.2174 19.7565 35.2171 18.0945 34.2315L8.0607 28.2797C7.20595 27.7727 6.67491 26.8278 6.67464 25.8138L6.67384 17.4446C6.67384 17.3757 6.60116 17.3325 6.54297 17.3669L6.03338 17.6689C5.52569 17.9693 5.10273 18.4038 4.80986 18.9249C4.51726 19.4454 4.36278 20.0381 4.36278 20.639ZM24.5508 11.6755C24.8437 12.1968 24.9984 12.7904 24.9979 13.3922L24.9974 13.9967C24.9974 14.0656 24.9247 14.1089 24.8665 14.0744L17.8116 9.8905C16.9568 9.3835 15.8947 9.38377 15.04 9.89078L5.00618 15.8426C3.34443 16.8282 2.3116 18.6656 2.3116 20.6374L2.31106 25.8127C2.31079 27.0979 2.64149 28.3656 3.26692 29.4786C3.89236 30.5915 4.79538 31.5193 5.87863 32.1619L13.9535 36.9511C14.0217 36.9914 14.0069 37.0964 13.9305 37.1162C11.7253 37.6896 9.60122 37.1096 8.30932 36.3433L4.72351 34.2169C3.28919 33.3666 2.09356 32.1382 1.26536 30.6648C0.437703 29.1917 0 27.5139 0 25.813V20.6374C0 17.8202 1.47509 15.1953 3.84971 13.7867L13.8857 7.83382C15.4528 6.90413 17.3996 6.90413 18.9669 7.83355L23.3295 10.4207C23.8361 10.721 24.2585 11.155 24.5508 11.6755Z" fill="black"/>
</svg>
