<svg width="91" height="40" viewBox="0 0 91 40" fill="none" xmlns="http://www.w3.org/2000/svg">
<path d="M51.0624 5.25907C47.7178 5.95134 42.6062 14.3216 39.9241 23.447C39.1037 26.2791 38.0309 27.5378 35.4751 28.8279C32.0989 30.4957 28.281 29.8978 28.281 27.6951C28.281 26.8455 28.4072 26.814 31.4363 26.9084C33.8028 27.0028 35.0018 26.6252 36.2639 25.4295C37.5892 24.2022 38.094 23.0065 38.1256 21.2758C38.1256 18.1606 35.8222 16.2096 32.1305 16.2096C27.2082 16.1781 23.1693 20.4262 22.1912 26.6252C21.8441 28.9852 21.213 29.8663 19.6985 30.2439C17.7737 30.7159 17.7106 27.4119 19.5723 23.1324C21.5286 18.6011 23.4849 15.6747 26.6402 12.5909C29.1645 10.0735 29.5431 9.57006 29.5431 8.62604C29.5431 6.92682 27.713 5.54227 25.5358 5.54227C22.8222 5.54227 19.9193 8.97218 17.5213 15.0453C16.3854 17.9718 15.6281 18.3494 13.1038 17.1851C9.03346 15.36 4.64755 17.9718 1.77621 23.919C-0.527184 28.702 -0.590291 31.8802 1.58689 34.0514C3.98494 36.4429 7.32958 35.9395 10.2009 32.7928C10.9267 32.0061 11.747 31.3453 11.9995 31.3453C12.2519 31.3453 12.8199 32.0061 13.23 32.8242C13.6402 33.6738 14.4606 34.6808 15.0601 35.0584C16.8902 36.3171 18.7519 35.7821 22.7907 32.7928C23.0431 32.5725 23.5164 32.7928 24.3053 33.485C27.0819 35.908 31.8465 35.5304 36.8319 32.4466C38.9144 31.1879 39.0091 31.1565 39.0091 31.8802C39.0091 32.7928 40.1766 34.429 41.1863 34.964C43.3003 36.0339 46.3926 34.9955 48.7906 32.3837L50.1474 30.9047L50.8731 32.5096C52.5454 36.3171 57.3415 36.1283 60.6862 32.1319C62.0745 30.4642 62.5478 30.3698 62.8318 31.6599C63.3998 34.2088 66.208 35.7507 69.0163 35.0269C69.8997 34.8067 70.9726 34.1144 72.2978 32.8557C73.3706 31.8487 74.4119 31.0306 74.5696 31.0306C74.759 31.0306 75.1376 31.597 75.4531 32.3208C77.4725 36.7261 82.1424 36.2227 86.1181 31.1879C88.106 28.6706 90.4725 24.5799 90.5356 23.5729C90.5987 22.8177 90.4725 22.6604 89.7468 22.5974C88.9895 22.503 88.674 22.7862 87.3803 24.6113C85.2662 27.6007 83.657 29.3314 82.4895 29.8034C81.6376 30.1495 81.4798 30.1181 81.1012 29.6146C79.9968 28.1356 81.0696 24.7057 83.373 22.2198C85.5502 19.9227 85.7395 19.0731 84.5089 17.8459C83.1206 16.4299 82.1424 16.304 80.1861 17.311C79.2711 17.7515 78.4507 18.1291 78.3245 18.1291C78.1983 18.1291 77.3148 17.7515 76.3366 17.311C71.5721 15.0453 69.0794 16.2411 63.7784 23.2897C59.8343 28.5447 57.4993 30.6215 56.3949 29.9607C55.7639 29.5516 55.6377 27.5378 56.1741 25.4295C56.742 23.038 59.2663 17.72 60.7809 15.6432L61.7906 14.2587L63.3998 14.5419C66.492 15.0139 68.8585 14.888 69.6158 14.1957C70.5308 13.3776 70.8779 12.4336 70.5308 11.7728C70.0575 10.8602 69.1109 10.8287 67.1231 11.6784C63.7784 13.0629 63.1158 12.528 65.4823 10.3253C66.7444 9.12952 67.0915 8.59458 67.0915 7.83937C67.0915 5.98281 64.2517 4.44092 62.2639 5.19613C61.7906 5.38494 60.3391 6.51775 59.0454 7.74497C57.7517 8.94072 56.5212 9.94766 56.2687 9.94766C55.9532 9.94766 55.7639 9.47565 55.6377 8.50018C55.3852 6.10868 53.4289 4.75559 51.0624 5.25907ZM55.4168 12.1189C55.4168 12.4336 54.9119 13.7552 54.3124 15.0768C53.7129 16.3669 52.7032 19.0416 52.0721 21.0241C50.6522 25.4609 49.8003 26.9399 47.7809 28.5447C43.6159 31.8173 42.827 28.0727 46.2348 21.0555C49.2639 14.8565 52.1353 11.5525 54.5649 11.521C55.1959 11.521 55.4168 11.6784 55.4168 12.1189ZM33.4557 19.8913C33.5504 20.1745 33.645 20.7723 33.645 21.2443C33.645 23.1324 30.0164 24.9889 28.912 23.6358C28.4072 23.038 28.7227 22.2198 29.9217 20.9926C31.4678 19.4193 33.0771 18.9158 33.4557 19.8913ZM75.7371 20.8353C76.4944 21.5905 76.3366 23.038 75.2638 25.0833C73.8755 27.6636 71.5721 29.7719 70.1206 29.7719C69.1425 29.7719 68.9847 29.6461 68.6692 28.6706C68.1328 27.0972 68.9532 24.8631 70.8148 22.8177C72.8658 20.5521 74.7274 19.7969 75.7371 20.8353ZM12.1257 21.0241C13.1354 22.031 12.1888 24.8001 9.79074 27.758C8.74948 29.0482 7.07716 30.0866 6.0359 30.0866C5.18396 30.0866 4.52134 28.1042 4.93153 26.6881C5.37328 24.9889 7.04561 22.6289 8.49706 21.559C9.82229 20.5835 11.4631 20.3633 12.1257 21.0241Z" fill="black"/>
<path d="M88.169 34.3975C88.3899 34.4919 88.6738 34.4604 88.7685 34.366C88.8947 34.2716 88.7054 34.1772 88.3583 34.2087C88.0112 34.2087 87.9166 34.3031 88.169 34.3975Z" fill="black"/>
</svg>
