<svg width="114" height="40" viewBox="0 0 114 40" fill="none" xmlns="http://www.w3.org/2000/svg">
<path d="M50.3004 19.506C50.2458 19.3672 50.1876 19.228 50.1259 19.0884C49.6703 18.0005 49.0856 16.9987 48.0907 16.2927C47.5149 15.8841 46.9539 15.4542 46.3807 15.0411C44.6107 13.7646 42.8433 12.4835 41.0632 11.2212C40.4492 10.7855 40.119 10.2225 40.2081 9.46449C40.3016 8.66748 40.6735 8.09222 41.5112 7.90013C41.7325 7.86254 41.932 7.74195 42.0701 7.56221C42.2082 7.38246 42.2749 7.15663 42.2571 6.92932C42.2521 6.28365 42.1913 5.63452 42.2408 4.99331C42.2888 4.37183 42.0392 4.03201 41.4722 4.14504C40.347 4.36953 39.1651 4.52764 38.1419 5.01002C35.7402 6.14311 34.837 8.40829 35.8001 10.862C36.2042 11.8912 36.8023 12.9696 37.6069 13.6824C39.2541 15.1426 41.1816 16.2753 42.8316 17.7332C43.699 18.4996 45.2337 18.4783 45.4749 19.9834C45.481 20.022 45.53 20.052 45.5535 20.0891C45.9787 20.7645 45.8409 21.5359 45.1756 21.9567C44.8174 22.1709 44.4393 22.3486 44.0468 22.4872C43.5956 22.6586 43.4215 22.9699 43.6976 23.3594C43.7928 23.4805 43.8542 23.6255 43.8752 23.779C43.6965 24.1803 43.2893 24.6381 43.263 24.9899C43.2488 25.177 43.289 25.6289 43.2746 25.817C43.2265 26.4386 44.0579 26.3181 44.628 26.2233C44.7857 26.197 44.9362 26.1712 45.0876 26.1456C45.5301 26.0849 45.9693 26.0011 46.4034 25.8946C46.4356 25.8861 46.4615 25.8747 46.4914 25.8658C46.6998 25.8139 46.9041 25.7576 47.1052 25.693C47.394 25.6001 47.6644 25.0647 47.9456 24.932C48.3991 24.7179 48.8119 24.8895 49.156 24.6008C50.6344 23.3624 51.081 21.4963 50.3 19.506" fill="black"/>
<path d="M67.2688 17.9908C67.0189 19.0035 66.1717 19.914 65.9572 20.9361C65.8515 21.4379 65.7446 21.939 65.6301 22.439C65.4459 23.2433 65.46 23.4737 65.2799 24.1597C65.2524 24.2296 65.2326 24.3024 65.221 24.3768L65.2188 24.3852C65.0821 24.8647 64.9816 25.7706 65.4307 25.7768C65.4891 25.7779 65.5476 25.7782 65.6059 25.7791C66.6597 25.8326 67.7175 25.8296 68.7725 25.843C69.3465 25.8499 69.6878 25.5225 69.8096 24.9949C70.083 23.8109 70.3234 22.6198 70.5667 21.4291C70.633 21.1051 70.6343 20.7667 70.7128 20.4462C71.1268 18.7629 71.5832 17.0897 71.9705 15.4002C72.2874 14.0186 72.5105 12.6148 72.8189 11.2305C72.8697 11.0023 73.1469 10.8264 73.3196 10.6258C73.4271 10.8238 73.5909 11.0101 73.6332 11.2218C73.9486 12.7923 74.2118 14.3744 74.5465 15.9406C74.8946 17.5685 74.8512 17.6598 73.2569 17.7118C73.1694 17.7212 73.0812 17.7227 72.9935 17.7162C72.3477 17.6167 72.0288 17.9964 71.9385 18.5561C71.8115 19.3261 71.7389 20.1043 71.7213 20.8848C71.718 21.0576 72.033 21.3243 72.2486 21.3911C72.4443 21.4516 72.71 21.3158 72.9341 21.2356C73.8215 20.9201 74.663 21.2861 75.408 21.6134C75.7575 21.7668 75.8708 22.5626 76.016 23.0887C76.2229 23.8384 76.3244 24.6198 76.5513 25.362C76.6194 25.5851 76.9502 25.8712 77.1679 25.8778C78.4628 25.9153 79.7598 25.8845 81.0562 25.8655C81.5053 25.8588 81.6864 25.6513 81.5497 25.1715C81.2998 24.2956 81.0599 23.4157 80.8568 22.5272C80.5096 21.0105 80.2291 19.4763 79.8566 17.966C79.2915 15.6765 78.6476 13.407 78.0888 11.1161C77.9108 10.3852 77.7006 9.8014 76.8387 9.78456C76.8238 9.78456 76.8103 9.71112 76.7969 9.67152C77.5203 9.19548 77.5875 9.03881 77.4163 8.37413C77.1391 7.29763 76.9074 6.20716 76.5795 5.14735C76.498 4.88399 76.1268 4.53912 75.8791 4.53048C74.5193 4.48469 73.1581 4.48397 71.7967 4.49592C71.7812 4.47245 71.767 4.44596 71.7512 4.42249C71.3702 4.42954 70.9887 4.42954 70.6079 4.44236C70.3599 4.45071 69.9888 4.79529 69.9073 5.05923C69.5792 6.1186 69.3478 7.20936 69.0711 8.28587C69.007 8.47576 68.9846 8.67761 69.0054 8.87725C68.9741 9.00685 68.944 9.1494 68.9127 9.32478C68.8662 9.58671 68.7669 9.83827 68.7013 10.0976C68.6871 10.1552 68.6729 10.2119 68.6587 10.2692C68.5415 10.5101 68.4543 10.765 68.3991 11.0278C67.9598 12.8289 67.468 14.6163 67.0032 16.4111C66.8768 16.8993 67.3909 17.5012 67.2701 17.991" fill="black"/>
<path d="M7.54216 16.4112C8.0692 16.1376 8.58874 15.975 9.15221 16.3209C9.27244 16.3683 9.40311 16.3815 9.53017 16.3591C10.1782 16.3224 10.5283 16.599 10.5453 17.2554C10.5865 18.8235 10.5854 20.3929 10.6265 21.9612C10.6395 22.4637 10.7682 22.964 10.7742 23.4662C10.78 23.9064 10.6573 24.3473 10.6466 24.7895C10.6282 25.5405 10.8758 25.8132 11.6133 25.8309C12.5792 25.8551 13.5467 25.8195 14.5131 25.8416C15.1426 25.856 15.3729 25.5563 15.3719 24.9466C15.365 19.8141 15.4185 7.73494 15.4202 6.82763C15.4207 6.3727 15.4235 5.91778 15.4286 5.46285C15.4384 4.65807 15.3471 4.52833 14.5372 4.52199C13.4601 4.51321 12.3831 4.53841 11.3073 4.51969C10.7175 4.50904 10.4853 4.74562 10.4995 5.35702C10.5508 7.56734 10.5658 9.77867 10.6017 11.9894C10.615 12.8122 10.4729 12.9777 9.66027 12.9801C8.9137 12.9824 8.16727 12.9716 7.42113 12.9635C7.01638 12.9592 6.70857 13.1093 6.69653 13.5564C6.67513 14.3593 6.656 15.1655 6.70985 15.9654C6.74599 16.5025 7.07831 16.6512 7.54272 16.4118" fill="black"/>
<path d="M25.6899 6.76731C25.673 7.24523 25.8299 7.49549 26.2993 7.63128C27.0813 7.85721 27.5985 8.37804 27.661 9.24402C27.7154 9.99956 27.7273 10.7577 27.7683 11.5141C27.825 12.5775 27.9415 13.6405 27.9426 14.7034C27.9436 15.8152 27.8292 16.9273 27.7816 18.0398C27.7329 19.1746 27.6986 20.31 27.6665 21.4451C27.6488 22.0748 27.3964 22.413 26.7489 22.6001C25.8595 22.8566 25.7209 24.7701 26.402 25.3899C26.5721 25.5444 28.0106 25.4925 28.6338 25.4652C29.046 25.4467 29.8644 24.5016 30.3002 24.7972C30.4183 24.8771 30.7573 24.7363 30.9258 24.6049C32.2558 23.5699 32.7164 22.0616 32.7578 20.4847C32.8317 17.6573 32.7402 14.825 32.7152 11.9945C32.7083 11.2381 32.5806 10.4631 32.6991 9.72842C32.9387 8.24139 32.4049 7.03471 31.5003 5.99032C30.0932 4.36476 28.1196 4.17973 26.1622 4.06612C26.0113 4.05734 25.7147 4.4634 25.6958 4.69436C25.6403 5.38064 25.714 6.07672 25.6897 6.76789" fill="black"/>
<path d="M82.8592 20.5764C82.6194 22.0639 83.1531 23.2703 84.0577 24.3148C85.2974 25.7467 86.9771 26.0605 88.6977 26.1925C88.8435 26.2105 88.9909 26.2193 89.1387 26.2229C89.2246 26.2284 89.3102 26.2338 89.3958 26.2387C89.4662 26.227 89.53 26.1894 89.5752 26.1332C89.6437 26.0919 89.7021 26.0353 89.7458 25.9677C89.7896 25.9001 89.8177 25.8232 89.8279 25.7429C89.845 25.7007 89.8565 25.6563 89.8621 25.6109C89.8877 25.1874 89.8908 24.7627 89.8715 24.3389C89.8762 24.1949 89.8748 24.049 89.8885 23.9056C89.9095 23.7138 89.8979 23.5197 89.8542 23.3319C89.8499 23.2184 89.8165 23.108 89.7572 23.0116C89.6979 22.9153 89.6149 22.8364 89.5164 22.7827C89.3416 22.6402 89.1411 22.5337 88.9261 22.4694C88.605 22.3599 88.3274 22.1477 88.1349 21.8646C87.9944 21.6195 87.9127 21.3441 87.8967 21.061C87.8422 20.306 87.8302 19.5476 87.7894 18.7912C87.7317 17.7278 87.6161 16.6648 87.6151 15.6018C87.6141 14.4896 87.7284 13.378 87.7758 12.2655C87.7932 11.8606 87.8026 11.4552 87.8169 11.0499C87.8421 10.9648 87.8735 10.8819 87.911 10.8016C87.9091 10.5568 87.908 10.312 87.9035 10.0673C87.8825 8.86375 88.2684 8.00079 89.4308 7.55109C89.5455 7.4864 89.6441 7.39594 89.7192 7.28661C89.7942 7.17728 89.8437 7.05198 89.8638 6.92025C89.92 6.18577 89.9252 5.44818 89.8794 4.71295C89.8645 4.59045 89.822 4.47309 89.7552 4.36995C89.6885 4.2668 89.5993 4.18064 89.4945 4.11811C89.0568 3.9596 88.5785 3.96071 88.1416 4.12125C87.7046 4.2818 87.3362 4.59179 87.0995 4.99807C86.7941 5.55965 86.5768 5.66923 86.1975 5.07957C85.9364 4.67379 85.6047 4.8954 85.3491 5.10419C85.1618 5.25784 84.7965 5.57116 84.6318 5.6996C83.3018 6.73507 82.8412 8.24298 82.7998 9.81958C82.7258 12.6475 82.8174 15.4797 82.8423 18.3102C82.8491 19.0666 82.9769 19.8413 82.8585 20.576" fill="black"/>
<path d="M18.0989 21.6517C18.2361 22.3428 18.5064 22.9996 18.8943 23.5842C19.2822 24.1689 19.7799 24.6699 20.359 25.0584C21.4927 25.8485 22.8262 25.9277 24.1003 26.2182C24.5044 26.3102 24.7158 26.0321 24.7381 25.639C24.778 24.9264 24.8618 24.2057 24.7948 23.5013C24.7664 23.1979 24.4633 22.7656 24.1902 22.669C23.1874 22.3136 22.858 21.5252 22.6596 20.5937C22.6149 20.3825 22.5084 20.1858 22.4442 19.9782C22.3236 19.5877 22.2128 19.194 22.0983 18.8016C21.9401 18.2592 21.9084 17.6165 21.5904 17.2002C21.2313 16.7304 21.1478 16.5422 21.7276 16.31C21.7836 16.2772 21.8324 16.2329 21.8707 16.1798C21.9089 16.1268 21.9359 16.0663 21.9499 16.002C22.1033 15.2875 22.2475 14.5709 22.3718 13.8505C22.6494 12.2317 22.0697 10.5196 22.8722 8.9607C23.0383 8.6219 23.2556 8.31163 23.5162 8.04115C23.9403 7.62198 24.6552 7.49238 24.7406 6.74203C24.8061 6.32328 24.8487 5.90115 24.8682 5.47761C24.8751 3.92607 24.8278 4.02326 23.5335 4.01779C22.8884 4.20268 22.2403 4.37778 21.5982 4.5739C19.6041 5.18314 18.2359 6.66931 18.0715 8.75838C17.9633 10.1364 17.944 11.5231 17.9241 12.9064C17.8941 14.9782 17.8791 17.0512 17.8974 19.1233C17.8831 19.9707 17.9506 20.8175 18.0989 21.6515" fill="black"/>
<path d="M99.9423 18.8272C99.9466 19.9852 100.017 21.1455 100.107 22.2998C100.159 22.9586 100.274 23.207 100.607 23.2492C100.939 23.2913 99.7476 25.5477 100.178 25.7572C100.701 26.0118 103.102 25.7943 103.673 25.8563C104.719 25.9692 104.884 25.8061 104.901 24.7501C104.938 22.4573 104.943 20.1636 104.945 17.8701C104.948 13.7202 104.945 9.57023 104.936 5.4203C104.936 5.28506 104.907 5.15143 104.851 5.02883C104.794 4.90624 104.712 4.79767 104.61 4.71079C104.508 4.62391 104.389 4.56083 104.26 4.526C104.132 4.49118 103.997 4.48547 103.866 4.50925C103.056 4.65483 102.234 4.75102 101.426 4.59219C100.448 4.39953 99.9378 4.53099 99.9527 5.3221C99.9741 6.50357 99.9668 7.68621 99.9634 8.8684C99.9555 12.1876 99.9294 15.5074 99.9422 18.8269" fill="black"/>
<path d="M1.01437 25.0144C1.01427 25.1232 1.02428 25.2318 1.04427 25.3387C1.02987 25.3784 1.02367 25.4208 1.02604 25.463C1.02842 25.5053 1.03932 25.5466 1.05807 25.5844C1.07682 25.6222 1.10302 25.6557 1.13505 25.6828C1.16708 25.7099 1.20424 25.73 1.24424 25.7419C1.3145 25.7934 1.39658 25.8258 1.48265 25.8358C1.56872 25.8459 1.6559 25.8334 1.73585 25.7995C2.57057 25.8058 3.40543 25.8464 4.24015 25.842C5.63861 25.8343 5.63904 25.8221 5.64939 24.4141C5.67461 20.8877 5.69889 17.3612 5.72223 13.8345C5.7262 13.0757 5.72733 12.3138 5.65987 11.5594C5.64957 11.4895 5.6232 11.423 5.58292 11.3653C5.60602 10.3849 5.63422 9.4044 5.71429 8.4287C5.73238 8.15313 5.7205 7.87639 5.67886 7.60347C5.69431 6.87198 5.70721 6.14005 5.70721 5.40855C5.70732 5.29974 5.69731 5.19118 5.6773 5.08428C5.69175 5.04455 5.69798 5.00222 5.69563 4.95994C5.69328 4.91766 5.68238 4.87632 5.66363 4.8385C5.64487 4.80068 5.61865 4.76719 5.5866 4.74011C5.55455 4.71303 5.51736 4.69293 5.47734 4.68109C5.40466 4.62801 5.3196 4.59511 5.23058 4.58564C5.14155 4.57617 5.05164 4.59045 4.96971 4.62709C4.10877 4.62997 3.91916 4.64149 3.08671 4.64624C3.02605 4.64624 2.30726 4.95324 1.99548 4.80176C1.99548 4.80464 1.83747 4.65503 1.77922 4.65575C0.918711 4.67087 1.08183 4.79067 1.07304 6.00815C1.05249 8.85636 1.16969 9.41693 1.20555 11.3829C1.27972 11.4858 1.34156 11.5973 1.38978 11.7151C1.3861 11.7691 1.38227 11.8159 1.3783 11.878C1.36768 12.1458 1.33493 12.4123 1.28037 12.6747C1.18725 13.0412 1.1729 13.4239 1.23832 13.7966C1.30373 14.1693 1.44737 14.5233 1.65947 14.8346C1.9738 15.3242 1.82089 15.5505 1.1765 15.6228C1.1765 15.7901 1.17791 15.9478 1.17905 16.1107C1.16856 16.114 1.1602 16.1205 1.14943 16.1235C1.12349 17.4059 1.10691 18.6732 1.13965 19.0528C1.11655 20.0342 1.08806 21.0161 1.00799 21.993C0.99003 22.2686 1.00191 22.5453 1.04342 22.8182C1.02797 23.5497 1.01508 24.2814 1.01508 25.0129" fill="black"/>
<path d="M60.5516 8.97883C59.5281 8.93909 58.5001 8.98833 57.4749 9.03643C57.0442 9.0563 56.9719 9.32701 57.0344 9.73912C57.1838 10.7246 57.2857 11.718 57.3962 12.7092C57.3962 12.8417 57.379 12.9737 57.3451 13.1017C57.2607 13.5019 57.1991 13.9068 57.1608 14.3143C57.1325 15.002 57.1706 15.692 57.1587 16.3812C57.1465 17.1047 57.0832 17.8279 57.0891 18.5507C57.0957 19.302 57.1831 20.0523 57.191 20.8035C57.2059 22.2233 57.1813 23.6437 57.191 25.0638C57.1946 25.5352 57.4481 25.8143 57.9336 25.8145C58.7238 25.8145 59.514 25.8094 60.304 25.7991C60.7415 25.7935 60.9317 25.5415 60.9317 25.114C60.9317 22.5251 60.9317 19.9363 60.9317 17.3478H60.9671C60.9671 17.103 60.9671 16.8582 60.9671 16.6134C60.9772 14.3147 61.0014 12.016 60.9779 9.71738C60.975 9.45819 60.7086 8.98589 60.5512 8.9797" fill="black"/>
<path d="M90.4872 14.6819C90.6045 14.5716 93.674 15.1055 93.7446 15.4306C93.8071 15.8127 93.8464 16.1983 93.8622 16.5853C93.9315 16.5981 93.8307 18.8591 93.5374 19.7498C93.0377 21.2675 92.6504 22.0558 91.149 22.6607C90.6506 22.8623 90.4165 23.1745 90.4458 23.7263C90.4742 24.2611 90.4428 24.7989 90.4613 25.3344C90.4896 26.1464 90.9516 26.4994 91.6878 26.1652C92.4338 25.8087 93.1509 25.3928 93.8324 24.9216C94.21 24.6715 94.4529 24.5515 94.7227 25.0426C94.8811 25.3313 94.5963 26.2907 95.5085 25.9709C96.3175 25.8874 97.3792 22.9463 97.3792 22.3733C97.3792 19.5377 97.4926 16.703 97.5493 13.868C97.5602 13.3129 97.2131 13.1983 96.7667 13.2114C95.2744 13.2555 93.7823 13.3067 92.2897 13.3442C91.8744 13.367 91.458 13.3551 91.0447 13.3086C90.282 13.1986 89.958 13.5355 90.1833 14.2877C90.2278 14.4369 90.383 14.5518 90.4876 14.6824" fill="black"/>
<path d="M66.4396 7.46861C66.4519 7.02223 66.4382 6.57585 66.4446 6.12946C66.4525 5.55939 66.2178 5.13834 65.7076 4.89528C65.5744 4.8481 65.4367 4.81537 65.2967 4.79765C65.3049 4.93546 63.1101 4.61493 62.3087 4.60168C59.4145 4.55445 56.518 4.63652 53.6224 4.67843C53.2964 4.68318 52.9654 4.79809 52.6445 4.76943C51.5865 4.67584 51.4176 4.85266 51.6495 5.92859C51.6867 6.10138 51.8019 6.25834 51.8226 6.43027C51.8499 6.65576 51.8025 6.88961 51.8196 7.11741C51.8325 7.29308 51.8621 7.59864 51.9402 7.61808C52.6063 7.78785 53.2817 7.99477 53.9607 8.02127C56.0014 8.09974 58.0443 8.11558 60.0867 8.12652C60.9301 8.13127 61.8157 8.28132 62.5444 7.63694C62.6406 7.5825 62.7534 7.56658 62.8605 7.59231C63.7869 7.73803 64.7135 7.88504 65.6366 8.05035C66.1168 8.13675 66.4243 8.01104 66.4395 7.46904" fill="black"/>
<path d="M91.2363 7.62563C92.2579 7.85703 92.7168 8.46598 92.7565 9.51499C92.7768 10.0498 92.7952 10.586 92.7785 11.1201C92.7612 11.6655 92.9947 11.8907 93.5235 11.8723C94.0712 11.8529 94.62 11.868 95.1685 11.868V11.8929C95.7392 11.8929 96.3099 11.882 96.8799 11.8959C97.3571 11.9076 97.5593 11.684 97.546 11.2085C97.5297 10.6286 97.6127 10.0329 97.5077 9.47251C97.3297 8.52214 97.2198 7.48624 96.7588 6.67555C95.5318 4.51794 93.4017 4.07012 91.1503 4.02476C90.7189 4.01597 90.4583 4.26955 90.4611 4.74185C90.4648 5.36621 90.4957 5.99288 90.4571 6.61479C90.42 7.21885 90.6555 7.49431 91.2366 7.62563" fill="black"/>
<path d="M42.2444 23.1639C42.2 22.935 41.9849 22.6133 41.7885 22.5618C40.5503 22.2363 39.9099 21.3793 39.6464 20.1844C39.54 19.7014 39.2962 19.4932 38.8313 19.5026C38.15 19.517 37.4664 19.5014 36.7891 19.5602C36.5646 19.5796 36.2234 19.7429 36.1636 19.9202C35.9416 20.629 35.7562 21.3492 35.6083 22.0778C35.5763 22.2198 35.6487 22.3838 35.6599 22.5386C35.7495 23.7648 36.8336 24.2001 37.5609 24.8593C38.548 25.754 39.8593 26.0335 41.1564 26.2048C42.1027 26.3302 42.2452 26.189 42.2726 25.2372C42.2808 24.9473 42.2737 24.6564 42.2737 24.3657H42.2651C42.2651 23.9637 42.3197 23.5507 42.2443 23.1637" fill="black"/>
<path d="M44.1986 8.0376C44.8953 8.43632 45.8177 8.73857 45.7717 9.87267C45.7667 9.99694 46.1244 10.2311 46.33 10.2515C46.8727 10.3055 48.8927 10.3061 49.3519 10.329C50.1568 10.3689 50.4349 10.1235 50.2825 9.32103C50.0313 7.99628 49.633 6.70349 48.5819 5.79244C47.67 5.00263 46.6672 4.38129 45.3561 4.80161C45.2002 4.85143 44.9613 4.60203 44.7514 4.51593C44.4302 4.38417 44.0865 4.15983 43.7797 4.19914C43.6049 4.22088 43.3887 4.67706 43.3595 4.95583C43.2991 5.52778 43.3697 6.11297 43.3534 6.69154C43.3347 7.3496 43.6209 7.70799 44.1989 8.03846" fill="black"/>
<path d="M106.294 8.59724C107.062 8.5909 107.83 8.59552 108.597 8.59552V8.57853C109.431 8.57853 110.266 8.61222 111.097 8.55548C111.31 8.54109 111.681 8.24446 111.682 8.07541C111.685 7.63277 111.503 7.19329 111.436 6.74432C111.42 6.56127 111.459 6.37754 111.547 6.21715C112.098 5.2161 111.918 4.66201 110.899 4.59952C109.346 4.50491 107.787 4.52882 106.231 4.50679C105.753 4.50016 105.576 4.81666 105.578 5.33432C105.581 6.12255 105.587 6.91093 105.564 7.69843C105.547 8.3058 105.766 8.60127 106.294 8.59724Z" fill="black"/>
<path d="M111.1 21.706C110.894 21.7714 110.681 21.812 110.466 21.8271C109.067 21.7812 107.669 21.7108 106.27 21.6587C105.797 21.6411 105.597 21.9597 105.593 22.4549C105.584 23.3477 105.587 24.2405 105.587 25.1332C105.587 25.6493 105.805 25.9144 106.274 25.9023C106.977 25.8843 107.68 25.8408 108.382 25.8675C109.107 25.8947 110.371 25.8099 110.994 25.7625C111.102 25.7545 111.204 25.7038 111.276 25.6212C111.348 25.5385 111.386 25.4304 111.381 25.3199C111.368 24.9949 111.324 24.6054 111.371 24.4153C111.54 23.7441 111.761 23.0813 111.853 22.3965C111.93 21.828 111.596 21.6002 111.1 21.7065" fill="black"/>
<path d="M106.216 16.8037C106.59 16.7893 106.963 16.8011 107.337 16.8011C107.337 16.8155 107.337 16.829 107.336 16.8429C107.688 16.8429 108.039 16.8557 108.39 16.8405C109.193 16.8054 109.486 16.3006 109.218 15.5014C109.127 15.2516 109.115 14.9792 109.183 14.722C109.407 14.0985 109.213 13.7016 108.787 13.3035C108.05 12.6123 107.16 12.9435 106.331 12.8656C105.84 12.8194 105.588 13.0678 105.577 13.6109C105.559 14.4173 105.524 15.2236 105.506 16.03C105.494 16.5462 105.711 16.8241 106.217 16.8043" fill="black"/>
<path d="M50.5393 29.5106C50.3732 29.1607 50.1256 29.1303 50.0213 29.3666C49.994 29.5228 48.4267 33.96 48.3207 34.333C48.2884 34.42 48.2749 34.5131 48.281 34.6059C48.287 34.6987 48.3126 34.7891 48.356 34.8711C48.7195 35.1909 48.9845 34.6081 49.0408 34.3687C49.1068 34.2516 49.1068 34.044 49.1816 34.0493C49.6635 34.0844 51.5249 33.9095 51.5714 34.0234C51.714 34.3751 51.7426 34.8358 52.0989 34.9161C52.4674 35.0544 52.3492 34.3546 52.3492 34.3546C52.3492 34.3546 51.097 30.6873 50.5387 29.511M51.2585 33.1578C51.1759 33.3397 49.5467 33.4141 49.372 33.3621C49.1374 33.3449 49.5192 32.5846 49.6351 32.2463C49.6968 31.8941 50.1493 30.7135 50.1565 30.5328C50.3803 30.2242 51.4694 32.9437 51.2584 33.158" fill="black"/>
<path d="M64.2693 33.9332C64.2551 33.2936 64.2485 33.0522 64.2693 32.5269C65.0434 32.7323 66.231 32.7334 66.9313 32.1341C67.579 31.5363 67.3009 29.9791 66.5837 29.5666C65.9971 29.1929 65.4386 29.3396 64.7849 29.3101C64.447 29.3533 64.024 29.1891 63.8267 29.458C63.5925 30.4351 63.7441 31.6052 63.7437 32.6103C63.7437 33.3923 63.6153 34.7574 63.9781 34.8785C64.3441 34.9625 64.32 34.7704 64.3121 34.4919C64.3049 34.2373 64.2753 34.2039 64.2696 33.9332M64.3035 30.9273C64.3288 30.6655 64.2162 30.0103 64.3427 30.0103C64.615 30.0103 65.8944 30.0296 66.0922 30.0862C66.745 30.2726 67.0305 31.0062 66.3768 31.6676C65.9331 32.1301 64.3502 32.0211 64.27 31.8723C64.2645 31.5184 64.3397 31.2863 64.3033 30.9272" fill="black"/>
<path d="M33.2237 29.9306C33.4133 30.008 34.0315 29.9545 34.2806 29.965C34.9089 30.9068 34.4589 32.7307 34.5013 33.8816C34.3846 34.4935 34.6662 35.1767 35.1737 34.6559C35.2624 34.4901 35.1607 34.0194 35.1536 33.8283L35.0504 29.9873C35.2756 29.9448 36.0474 30.0138 36.3613 30.0211C36.5739 30.0263 36.9245 30.0321 37.0114 29.8164C37.0692 29.7071 37.0037 29.1279 36.7763 29.0253C36.5583 28.9127 36.3086 29.0847 36.1261 29.1559C35.6257 29.2329 35.1192 29.2615 34.6135 29.2414C33.9836 29.2807 31.9634 28.8068 33.2237 29.9306Z" fill="black"/>
<path d="M79.0812 29.4958C78.5545 29.5157 78.4869 30.1242 78.5143 30.8163C78.5416 31.5083 78.4756 33.5377 78.5238 34.0041C78.5545 34.3158 78.6095 34.6245 78.6883 34.9273C78.9209 35.2929 79.5349 35.0494 79.9717 35.121C80.4194 35.1383 81.9274 35.2087 82.2694 35.1606C82.5785 35.1165 82.4478 34.2534 81.7705 34.3686C81.159 34.4676 80.5371 34.4829 79.9215 34.4141C79.6034 34.3202 79.5065 34.4498 79.2378 34.3686C79.1215 34.3286 78.9356 32.9884 79.1482 32.5919C79.5818 32.5463 80.0177 32.5274 80.4536 32.5354C80.7626 32.5485 81.1867 32.7956 81.4008 32.4558C81.681 31.6782 81.0065 31.8396 80.4818 31.8634C79.9969 31.8857 79.5226 31.7758 79.0362 31.8634C79.0504 31.4239 79.0066 30.6816 79.0583 30.2806C79.8915 30.2769 80.6803 30.145 81.4623 30.2354C82.1474 30.4335 82.473 29.8617 81.9185 29.4722C81.6036 29.3724 81.2986 29.4935 80.9636 29.484C80.3633 29.5896 79.6986 29.4605 79.0807 29.4958" fill="black"/>
</svg>
